/* XPM */
static char *_659b6255e744cf9e582b1a9e8306f17ZoS0Ye90M0LwLJUz[] = {
/* columns rows colors chars-per-pixel */
"64 64 3 1 ",
"  c None",
". c #FF6D6D",
"X c #FF6E6E",
/* pixels */
"                                                                ",
"                                                                ",
"                                                                ",
"                                                                ",
"                                                                ",
"                                                                ",
"                                                                ",
"                                                                ",
"                                                                ",
"                                                                ",
"                                                                ",
"                                X                               ",
"                                X                               ",
"                               XXX                              ",
"                               XXX                              ",
"                              XXXXX                             ",
"                              XXXXX                             ",
"                             XXXXXXX                            ",
"                             XXXXXXX                            ",
"                             XXXXXXXX                           ",
"                            XXXXXXXXX                           ",
"                            XXXXXXXXXX                          ",
"                           XXXXXXXXXXX                          ",
"                           XXXXXXXXXXXX                         ",
"                          XXXXXXXXXXXXX                         ",
"                       XXXXXXXXXXXXXXXXXXXXXX                   ",
"               XXXXXXXXXXXXXXXXXXXXXXXXXXXXXXXXXXXXXX           ",
"           XXXXXXXXXXXXXXXXXXXXXXXXXXXXXXXXXXXXXXXXXXX          ",
"            XXXXXXXXXXXXXXXXXXXXXXXXXXXXXXXXXXXXXXXXX           ",
"             XXXXXXXXXXXXXXXXXXXXXXXXXXXXXXXXXXXXXXX            ",
"              XXXXXXXXXXXXXXXXXXXXXXXXXXXXXXXXXXXXX             ",
"               XXXXXXXXXXXXXXXXXXXXXXXXXXXXXXXXXXX              ",
"                XXXXXXXXXXXXXXXXXXXXXXXXXXXXXXXXX               ",
"                 XXXXXXXXXXXXXXXXXXXXXXXXXXXXXXX                ",
"                   XXXXXXXXXXXXXXXXXXXXXXXXXXXX                 ",
"                    XXXXXXXXXXXXXXXXXXXXXXXXXX                  ",
"                     XXXXXXXXXXXXXXXXXXXXXXXX                   ",
"                      XXXXXXXXXXXXXXXXXXXXXX                    ",
"                      XXXXXXXXXXXXXXXXXXXXXX                    ",
"                      XXXXXXXXXXXXXXXXXXXXXX                    ",
"                      XXXXXXXXXXXXXXXXXXXXXX                    ",
"                     XXXXXXXXXXXXXXXXXXXXXXX                    ",
"                     XXXXXXXXXXXXXXXXXXXXXXX                    ",
"                     XXXXXXXXXXXXXXXXXXXXXXXX                   ",
"                     XXXXXXXXXXXXXXXXXXXXXXXX                   ",
"                     XXXXXXXXXXXXXXXXXXXXXXXX                   ",
"                     XXXXXXXXXX   XXXXXXXXXXX                   ",
"                    XXXXXXXXXX      XXXXXXXXX                   ",
"                    XXXXXXXX          XXXXXXXX                  ",
"                    XXXXXX              XXXXXX                  ",
"                    XXXX                  XXXX                  ",
"                    XXX                     XX                  ",
"                   XX                        X                  ",
"                                                                ",
"                                                                ",
"                                                                ",
"                                                                ",
"                                                                ",
"                                                                ",
"                                                                ",
"                                                                ",
"                                                                ",
"                                                                ",
"                                                                "
};
