/* XPM */
static char *_b8d0aa707674969a63f4af10a83072ai0a5aLYeVGcHO037[] = {
/* columns rows colors chars-per-pixel */
"64 64 13 1 ",
"  c None",
". c #37B7A4",
"X c #3AB9A7",
"o c #3DBCAA",
"O c #3DBDAA",
"+ c #3EBCAA",
"@ c #3EBCAB",
"# c #3FBCAC",
"$ c #3FBDAC",
"% c #41BFAD",
"& c #4BC6B6",
"* c #4AC6B7",
"= c #4AC7B7",
/* pixels */
"                                                                ",
"                                                                ",
"                                                        $$$     ",
"   =====================================================%...+   ",
"   ======================================================X...   ",
"   ======================================================+...$  ",
"   ======================================================+...$  ",
"   ======================================================+...$  ",
"   ======================================================+...$  ",
"   ======================================================+...$  ",
"   ======================================================+...$  ",
"   ======================================================+...$  ",
"   ======================================================+...$  ",
"   ======================================================+...$  ",
"   ======================================================+...$  ",
"   ======================================================+...$  ",
"   ======================================================+...$  ",
"   ======================================================+...$  ",
"   ======================================================+...$  ",
"   ======================================================+...$  ",
"   ======================================================+...$  ",
"   ======================================================+...$  ",
"   ======================================================+...$  ",
"   ======================================================+...$  ",
"   ======================================================+...$  ",
"   ======================================================+...$  ",
"   ======================================================+...$  ",
"   ======================================================+...$  ",
"   ======================================================+...$  ",
"   ======================================================+...$  ",
"   ======================================================+...$  ",
"   ======================================================+...$  ",
"   ======================================================+...$  ",
"   ======================================================+...$  ",
"   ======================================================+...$  ",
"   ======================================================+...$  ",
"   ======================================================+...$  ",
"   ======================================================+...$  ",
"   ======================================================+...$  ",
"   ======================================================+...$  ",
"   ======================================================+...$  ",
"   ======================================================+...$  ",
"   ======================================================+...$  ",
"   ======================================================+...$  ",
"   ======================================================+...$  ",
"   ======================================================+...$  ",
"   ======================================================+...$  ",
"   ======================================================+...$  ",
"   ======================================================+...$  ",
"   ======================================================+...$  ",
"   ======================================================+...$  ",
"   ======================================================+...$  ",
"   ======================================================+...$  ",
"   ======================================================+...$  ",
"   ======================================================+...$  ",
"   ======================================================+...$  ",
"   ======================================================+...$  ",
"   ======================================================+...$  ",
"   ======================================================+...$  ",
"   ======================================================X...   ",
"   =====================================================%...+   ",
"                                                        $$$     ",
"                                                                ",
"                                                                "
};
