/* XPM */
static char *c2c471798e8145e2cbc51d8b40438d32YhoLbCRoDy3ZV1Bv[] = {
/* columns rows colors chars-per-pixel */
"64 64 29 1 ",
"  c #94B5D5",
". c #B6CDE2",
"X c #BBDBFF",
"o c #BCDCFF",
"O c #BFDDFF",
"+ c #C3DFFF",
"@ c #C4E0FF",
"# c #C7E1FF",
"$ c #C9E2FF",
"% c #CBE4FF",
"& c #CFE6FF",
"* c #D0E6FF",
"= c #D3E8FF",
"- c #D7EAFF",
"; c #D9EBFF",
": c #DBECFF",
"> c #DFEDFF",
", c #E3EFFF",
"< c #E3F0FF",
"1 c #E7F2FF",
"2 c #E9F2FF",
"3 c #EBF4FF",
"4 c #EFF5FF",
"5 c #F2F7FF",
"6 c #F3F8FF",
"7 c #F5F9FF",
"8 c #F9FBFF",
"9 c #FBFCFF",
"0 c #FEFEFF",
/* pixels */
" .............................................................. ",
".09999999999999999999999999999999999999999999999999999999999990.",
".97777777777777777777777777777777777777777777777777777777777779.",
".97777777776777777777777777777777766777777777777777777777777779.",
".96666666666666666666666666666666666666666666666666666666666669.",
".95555555555555555555555555555555555555555555555555555555555559.",
".85555555555555555555555555555555555555555555555555555555555558.",
".85555555555554455554555555555555555554455554555555555555555558.",
".84444444444444444444444444444444444444444444444444444444444448.",
".84444444444444444444444444444444444444444444444444444444444448.",
".84444444444444444444444444444444444444444444444444444444444448.",
".74444444444444433434444444444334444444433434444434444444444447.",
".72222222222222222222222222222222222222222222222222222222222227.",
".72222222222222222222222222222222222222222222222222222222222227.",
".72222222222222222222222222222222222222222222222222222222222227.",
".72222221111222222222222222222222222222222221111111122221111227.",
".71111111111111111111111111111111111111111111111111111111111117.",
".71111111111111111111111111111111111111111111111111111111111117.",
".7,,1111,,,,1111111111111,1111,,1111111111,,1111,,,,1111,,11117.",
".61111<<,,1111<<1111<<<<,,1111,,<<<<1,111,,,1111,,1111<<,,11117.",
".7,,,,,,,,,,,,,,,,,,,,,,,,,,,,,,,,,,,,,,,,,,,,,,,,,,,,,,,,,,,,7.",
".6,,,,,,,,,,,,,,,,,,,,,,,,,,,,,,,,,,,,,,,,,,,,,,,,,,,,,,,,,,,,6.",
".6,,,,,,,,,,,,,,,,,,,,,,,,,,,,,,,,,,,,,,,,,,,,,,,,,,,,,,,,,,,,6.",
".6,,>>,,,,,,,>>,>>>>,,,,>>,,,>>,,,>>>,>,,,,,>>>>,,,,>>,,,,,,,,6.",
".6>>>>>>>>>>>>>>>>>>>>>>>>>>>>>>>>>>>>>>>>>>>>>>>>>>>>>>>>>>>>6.",
".6>>>>>>>>>>>>>>>>>>>>>>>>>>>>>>>>>>>>>>>>>>>>>>>>>>>>>>>>>>>>6.",
".5:>>>>>>>>>>:>>>>::>>>>>>>:>:>>>>>>>:>>>>::>>>>>:::>>>>>>>>>:5.",
".5::::::::::::::::::::::::::::::::::::::::::::::::::::::::::::5.",
".5;;;;;;;;;;;;;;;;;;;;;;;;;;;;;;;;;;;;;;;;;;;;;;;;;;;;;;;;;;;;4.",
".5;;;;;;;;;;;;;;;;;;;;;;;;;;;;;;;;;;;;;;;;;;;;;;;;;;;;;;;;;;;;5.",
".4;;;;-;;;;;;;;;;;;;;;;;;;;;;;-;;;;;;;;;;;;;;;;;;;;;;;-;;;;;;;4.",
".4------------------------------------------------------------4.",
".4------------------------------------------------------------4.",
".4------------------------------------------------------------4.",
".4-------==-==-=-----=-====-----====-----==-==-=-----=-====---4.",
".4============*===============================*===============4.",
".4************************************************************4.",
".4************************************************************4.",
".3&***********************************************************4.",
".3&&&&&&&&&&&&&&&&&&&&&&&&&&&&&&&&&&&&&&&&&&&&&&&&&&&&&&&&&&&&4.",
".3&&&&&&&&&&&&&&&&&&&&&&&&&&&&&&&&&&&&&&&&&&&&&&&&&&&&&&&&&&&&3.",
".3&&&&&&&&&&&&&&&&&&&&&&&&&&&&&&&&&&&&&&&&&&&&&&&&&&&&&&&&&&&&3.",
".3%%&&&&&&&&%%%&&&&&%%%%%&%%&&&&%&%%&&&&&&&&%%%&&&&&%%%%%&&&&&3.",
".3%%%%%%%%%%%%%%%%%%%%%%%%%%%%%%%%%%%%%%%%%%%%%%%%%%%%%%%%%%%%3.",
".3$$$$$$$$$$$$$$$$$$$$$$$$$$$$$$$$$$$$$$$$$$$$$$$$$$$$$$$$$$$$3.",
".2$$$$$$$$$$$$$$$$$$$$$$$$$$$$$$$$$$$$$$$$$$$$$$$$$$$$$$$$$$$$2.",
".2$$$$$$$$$$$$$$$$$$$$$$$$$$$$##$$$$$$$$$$$$$$$$$$$$$$$$$$$$$$2.",
".2############################################################2.",
".2############################################################1.",
".2############################################################1.",
".1############################################################1.",
".1++++++++++++++++++++++++++++++++++++++++++++++++++++++++++++1.",
".1++++++++++++++++++++++++++++++++++++++++++++++++++++++++++++1.",
".1++++++++++++++++++++++++++++++++++++++++++++++++++++++++++++1.",
".1OOO++OOOOOOOO+++OOO+++OOOOOOO+++OOO+++OOOOOOO+++OOO+++OO++++1.",
".1OOOOOOOOOOOOOOOOOOOOOOOOOOOOOOOOOOOOOOOOOOOOOOOOOOOOOOOOOOOO1.",
".1OOOOOOOOOOOOOOOOOOOOOOOOOOOOOOOOOOOOOOOOOOOOOOOOOOOOOOOOOOOO1.",
".1OOOOOOOOOOOOOOOOOOOOOOOOOOOOOOOOOOOOOOOOOOOOOOOOOOOOOOOOOOOO1.",
".1OOOOOOOOOOOOOOOOOOOOOOOOOOOOOOOOOOOOOOOOOOOOOOOOOOOOOOOOOOOO1.",
".1XXXXXXXXXXXXXXXXXXXXXXXXXXXXXXXXXXXXXXXXXXXXXXXXXXXXXXXXXXXX1.",
".<XXXXXXXXXXXXXXXXXXXXXXXXXXXXXXXXXXXXXXXXXXXXXXXXXXXXXXXXXXXX<.",
".<XXXXXXXXXXXXXXXXXXXXXXXXXXXXXXXXXXXXXXXXXXXXXXXXXXXXXXXXXXXX<.",
".6<<<<<<<<<<<<<<<<<<<<<<<<<<<<<<<<<<<<<<<<<<<<<<<<<<<<<<<<<<<<7.",
" .............................................................. "
};
