/* XPM */
static char *_459565b55574d51f16ac360c033b01bUjCwvhv37tdh3ZZm[] = {
/* columns rows colors chars-per-pixel */
"64 64 132 2 ",
"   c None",
".  c #F8C229",
"X  c #F9C631",
"o  c #FAC835",
"O  c #F2C83C",
"+  c #FACB3C",
"@  c #FACE42",
"#  c #FAD047",
"$  c #FBD34C",
"%  c #FBD654",
"&  c #F9D759",
"*  c #FDDA5C",
"=  c #EBDA6E",
"-  c #FCDD64",
";  c #FBE06B",
":  c #FBE474",
">  c #FBE77A",
",  c #FCE87B",
"<  c #FC76A8",
"1  c #FC7CAC",
"2  c #3AEDBC",
"3  c #43EEBD",
"4  c #4BEEBD",
"5  c #52F1BE",
"6  c #5BF2BF",
"7  c #64F3BF",
"8  c #6DF3BF",
"9  c #00BFF8",
"0  c #09C4F7",
"q  c #03C3F9",
"w  c #0AC5F9",
"e  c #07CAFA",
"r  c #0ACEFB",
"t  c #13C8F4",
"y  c #16C7F9",
"u  c #1ECBF9",
"i  c #0ED0FA",
"p  c #14D1F7",
"a  c #2DD4EF",
"s  c #2ACCF9",
"d  c #32CFFA",
"f  c #3DD1F9",
"g  c #55F0C0",
"h  c #5BF1C2",
"j  c #6DF4C0",
"k  c #73F2C4",
"l  c #73F3C8",
"z  c #7BF3CA",
"x  c #76ECDD",
"c  c #49D3FA",
"v  c #50D5FA",
"b  c #5BD7FA",
"n  c #5FD8F9",
"m  c #70DAEF",
"M  c #67DCF6",
"N  c #6ADBF3",
"B  c #60D7FA",
"V  c #62D9FA",
"C  c #65E7E2",
"Z  c #6DE1EA",
"A  c #74E2EE",
"S  c #7BE6E8",
"D  c #FC80AE",
"F  c #FD84B2",
"G  c #FC8AB5",
"H  c #FD8EB8",
"J  c #FD91BA",
"K  c #BCD289",
"L  c #94D5BE",
"P  c #AFDAAB",
"I  c #A9DFBF",
"U  c #B3DFB3",
"Y  c #EFD59E",
"T  c #F5DC9C",
"R  c #EDE687",
"E  c #E4E68E",
"W  c #F9E484",
"Q  c #F9E48D",
"!  c #F7E097",
"~  c #E5C4B3",
"^  c #E6D6BD",
"/  c #EFD6BF",
"(  c #F1D9B7",
")  c #F0D7BB",
"_  c #CFE4A1",
"`  c #C4E2A9",
"'  c #F697C4",
"]  c #F49BC8",
"[  c #D7ADD3",
"{  c #DAB8DD",
"}  c #FFA6C5",
"|  c #F5ABC5",
" . c #F5A3CD",
".. c #EBB6C8",
"X. c #E8B9C8",
"o. c #F1B2C7",
"O. c #EFABD6",
"+. c #F3A9D3",
"@. c #CA96E5",
"#. c #CC9CE6",
"$. c #CE9FE8",
"%. c #CFA0E8",
"&. c #D1A5EA",
"*. c #D4ADEB",
"=. c #D6B1ED",
"-. c #D9B4ED",
";. c #84DDC0",
":. c #93D1C0",
">. c #87D8D4",
",. c #8EDDD6",
"<. c #BFC1C2",
"1. c #BEC9C3",
"2. c #81EAC1",
"3. c #80F4CC",
"4. c #8BEEDE",
"5. c #94F4D3",
"6. c #9AF6D3",
"7. c #92F2D8",
"8. c #ADE5CF",
"9. c #A7EBD1",
"0. c #ABE9D0",
"q. c #80DCE1",
"w. c #85EBE1",
"e. c #CDCECC",
"r. c #D0CCCB",
"t. c #C6D3CD",
"y. c #CBCBD1",
"u. c #E3C3C5",
"i. c #E9CEDF",
"p. c #E9CEE3",
"a. c #E2C4F1",
"s. c #E5C9F3",
/* pixels */
"                                                                                                                                ",
"                                                                                                                                ",
"                                                                                                                                ",
"                                                                                                                                ",
"                                                                                                                                ",
"                                                                                                                                ",
"                                                                                                                                ",
"                                                              } G                                                               ",
"                                                            } } F J                                                             ",
"                                                            } } 1 J                                                             ",
"                                                            } } < J                                                             ",
"                                                          } } } < H J                                                           ",
"                                                          } } } < F J                                                           ",
"                                                        } } } } < D J J                                                         ",
"                                                        } } } } < 1 J J                                                         ",
"                                                        } } } } < < H J                                                         ",
"                                                      } } } } } < < G J J                                                       ",
"                                                      } } } } } < < F J J                                                       ",
"                                                    } } } } } } < < 1 J J J                                                     ",
"                                                    } } } } } } < < < J J J                                                     ",
"                                                    } } } } } } < < < G J J                                                     ",
"                                                  } } } } } } } < < < F J J J                                                   ",
"                                                  } } } } } } } < < < 1 J J J                                                   ",
"                                                } } } } } } } } O. .] ' +. . . .                                                ",
"                              8 8 j j j 8 8 j 2.} } } } } } } } s.s.s.s.s.s.s.s.s.s.s.s.s.s.s.s.s.                              ",
"          j j j j j j j j j j j j j j j j j j 1.} } } } } } } } s.s.s.s.s.s.s.s.s.s.s.s.s.s.s.s.s.s.s.s.s.s.s.s.s.s.a.          ",
"          5.l g 3 3 4 5 5 6 6 7 7 j j j j j k | } } } } } } } } s.s.s.s.s.s.s.s.s.s.s.s.s.s.s.s.s.s.s.s.s.s.s.a.-.*.*.          ",
"            6.6.5.l g 2 2 2 2 2 2 2 2 3 3 4 ;.} } } } } } } } } s.s.s.s.s.s.s.s.s.s.s.s.s.s.s.s.s.s.s.s.a.-.&.#.&.=.            ",
"              6.6.6.6.6.z h 3 2 2 2 2 2 2 2 <.} } } } } } } } } s.s.s.s.s.s.s.s.s.s.s.s.s.s.s.s.s.a.=.%.@.@.%.=.=.              ",
"                6.6.6.6.6.6.6.z h 3 2 2 2 4 } } } } } } } } } } s.s.s.s.s.s.s.s.s.s.s.s.s.s.a.=.%.@.@.@.#.*.=.=.                ",
"                    6.6.6.6.6.6.6.6.3.h 3 :.} } } } } } } } } } s.s.s.s.s.s.s.s.s.s.s.a.*.$.@.@.@.@.#.&.=.=.                    ",
"                      6.6.6.6.6.6.6.6.6.6.8.r.o.} } } } } } } } s.s.s.s.s.s.s.s.p.) T @.@.@.@.@.@.&.=.=.=.                      ",
"                        6.6.6.6.6.6.6.6.6.6.6.6.0.e...} } } } } s.s.s.s.s.p./ ! , , , #.@.@.@.#.*.=.=.=.                        ",
"                          6.6.6.6.6.6.6.6.6.6.6.6.6.6.9.t.X.} } s.s.i.( Q , , , , , , [ @.#.&.=.=.=.=.                          ",
"                            6.6.6.6.6.6.6.6.6.6.6.6.6.6.6.6.9.y.^ Q , , , , , , , , , ~ &.=.=.=.=.=.                            ",
"                              6.6.6.6.6.6.6.6.6.6.6.6.6.6.6.6.A ,., , , , , , , , , , W =.=.=.=.=.                              ",
"                                  6.6.6.6.6.6.6.6.6.6.6.6.6.w.V V ` , , , , , , , , , , { =.=.                                  ",
"                                    6.6.6.6.6.6.6.6.6.6.6.7.M V V N E , , , , , , , , , u.=.                                    ",
"                                      7.6.6.6.6.6.6.6.6.6.N V V V V q.> , , , , , , , , Y                                       ",
"                                      p x 6.6.6.6.6.6.6.S V V V V V V I , , , , , , , , >                                       ",
"                                      r i C 6.6.6.6.6.4.V V V V V V V V _ , , , , , , , ,                                       ",
"                                      r r r a 6.6.6.7.M V V V V V V V V m R , , , , , , ,                                       ",
"                                    r r r r 9 t 7.6.A V V V V V V V V V V ,.> , , , , , , ,                                     ",
"                                    r r r q 9 9 0 Z V V V V V V V V V V V V U , , , , , , >                                     ",
"                                    r r r q 9 9 0 n V V V V V V V V V V M K . - , , , , , ,                                     ",
"                                    r r q 9 9 q c V V V V V V V V V V L O . . X : , , , , ,                                     ",
"                                  r r r q 9 9 s V V V V V V V V V N P & X . . . + , , , , , ,                                   ",
"                                  r r e 9 9 w V V V V V V V V V >.= * * * o . . . % , , , , >                                   ",
"                                  r r q 9 q b V V V V V V V V     * * * * * + . . . ; , , , >                                   ",
"                                  r r 9 9 f V V V V V V V V         * * * * * @ . . o , , , ,                                   ",
"                                r r q 9 u V V V V V V V                 * * * * # . . # , , , >                                 ",
"                                r r q 0 B V V V V V                         * * * $ . . * , , ,                                 ",
"                                r q q v V V V V V                             * * * % . . : , >                                 ",
"                                r q d V V V V                                     * * % X + , ,                                 ",
"                              r e y V V V                                             * * o $ , >                               ",
"                              r w b V V                                                 * * + - ,                               ",
"                              r c V                                                         * $ :                               ",
"                                                                                                -                               ",
"                                                                                                                                ",
"                                                                                                                                ",
"                                                                                                                                ",
"                                                                                                                                ",
"                                                                                                                                ",
"                                                                                                                                "
};
