/* XPM */
static char *_5c4a0524fde48abe23e10c2e6f7b39eqAKMC8mJQBqii1uv[] = {
/* columns rows colors chars-per-pixel */
"64 64 184 2 ",
"   c None",
".  c #66A8B7",
"X  c #68AAB5",
"o  c #68AAB6",
"O  c #68ABB6",
"+  c #69ABB6",
"@  c #69ABB7",
"#  c #69ACB6",
"$  c #6AACB7",
"%  c #63A7BB",
"&  c #62A6BC",
"*  c #6AACB8",
"=  c #6AADB8",
"-  c #6BADB9",
";  c #6BAEB9",
":  c #6BAEBA",
">  c #6BAFBA",
",  c #6CAFBB",
"<  c #6DB0BC",
"1  c #6DB0BD",
"2  c #6EB0BD",
"3  c #6EB1BD",
"4  c #6EB2BE",
"5  c #3D8CE9",
"6  c #3C8CEA",
"7  c #3D8CEA",
"8  c #56A0D5",
"9  c #6FB3C0",
"0  c #70B3C0",
"q  c #70B4C0",
"w  c #70B4C1",
"e  c #70B5C1",
"r  c #70B5C2",
"t  c #71B6C2",
"y  c #72B7C3",
"u  c #72B8C4",
"i  c #72B8C5",
"p  c #72B9C5",
"a  c #73B8C6",
"s  c #73BAC6",
"d  c #74B9C7",
"f  c #74BAC7",
"g  c #74BBC7",
"h  c #75BAC8",
"j  c #75BBC8",
"k  c #75BBC9",
"l  c #76BBC8",
"z  c #76BBC9",
"x  c #77BBC9",
"c  c #75BBCA",
"v  c #77BCC9",
"b  c #75BCCA",
"n  c #76BCCA",
"m  c #76BDCB",
"M  c #77BECB",
"N  c #77BFCB",
"B  c #76BECC",
"V  c #77BFCC",
"C  c #77BECD",
"Z  c #77BFCD",
"A  c #78BECA",
"S  c #79BECC",
"D  c #78BFCC",
"F  c #7ABFCF",
"G  c #418FE5",
"H  c #6A93FD",
"J  c #6993FE",
"K  c #6994FD",
"L  c #6895FD",
"P  c #6995FD",
"I  c #6A94FD",
"U  c #6894FE",
"Y  c #6994FE",
"T  c #6A94FE",
"R  c #5BA6E0",
"E  c #76C2CD",
"W  c #75C1CE",
"Q  c #77C1CE",
"!  c #75C3CE",
"~  c #76C2CE",
"^  c #77C2CE",
"/  c #76C3CE",
"(  c #76C2CF",
")  c #76C3CF",
"_  c #77C3CF",
"`  c #77C4CF",
"'  c #78C0CC",
"]  c #7AC1CD",
"[  c #79C1CF",
"{  c #7AC1CF",
"}  c #77C4D0",
"|  c #7AC1D0",
" . c #7AC2D0",
".. c #7BC3D2",
"X. c #7CC1D1",
"o. c #7CC3D2",
"O. c #78C4D0",
"+. c #79C6D1",
"@. c #78C5D2",
"#. c #79C6D3",
"$. c #7AC7D4",
"%. c #7AC7D5",
"&. c #7BC7D5",
"*. c #7DC6D4",
"=. c #7CC6D5",
"-. c #7EC7D6",
";. c #7CC8D6",
":. c #7DCBD8",
">. c #7FCCDA",
",. c #80C8D6",
"<. c #80C9D7",
"1. c #80C9D8",
"2. c #80C9D9",
"3. c #81CAD9",
"4. c #81CBDB",
"5. c #80CDDA",
"6. c #81CCDB",
"7. c #82CCDB",
"8. c #81CEDC",
"9. c #82CEDD",
"0. c #82CEDE",
"q. c #84CEDE",
"w. c #85CFDF",
"e. c #82D0DE",
"r. c #83D0E0",
"t. c #83D0E1",
"y. c #83D2E1",
"u. c #84D1E0",
"i. c #85D1E0",
"p. c #86D0E0",
"a. c #85D2E1",
"s. c #86D2E2",
"d. c #87D3E3",
"f. c #86D4E4",
"g. c #87D6E5",
"h. c #88D4E5",
"j. c #89D5E6",
"k. c #89D6E7",
"l. c #8AD6E7",
"z. c #8BD7E8",
"x. c #8BD7E9",
"c. c #89D9E9",
"v. c #8AD8E9",
"b. c #8BD8E9",
"n. c #8BD9EB",
"m. c #8CD8E9",
"M. c #8CD9EA",
"N. c #8DDAEB",
"B. c #8DDAEC",
"V. c #8DDAED",
"C. c #8EDBED",
"Z. c #8DDCED",
"A. c #8EDCED",
"S. c #8EDCEE",
"D. c #8FDCEE",
"F. c #8EDDEE",
"G. c #8FDCEF",
"H. c #8EDDEF",
"J. c #8FDDEF",
"K. c #8EDEEE",
"L. c #8FDEEE",
"P. c #8EDEEF",
"I. c #8FDEEF",
"U. c #90DDEF",
"Y. c #92DEEF",
"T. c #93DEEF",
"R. c #94DFF0",
"E. c #98DFF0",
"W. c #A3E3F1",
"Q. c #A9E4F2",
"!. c #ABE4F2",
"~. c #B0E6F3",
"^. c #BAE9F5",
"/. c #BEEAF5",
"(. c #C0EAF6",
"). c #C1EBF6",
"_. c #D3EFF8",
"`. c #D6F0F8",
"'. c #DCF2F9",
"]. c #E6F4FA",
"[. c #E9F5FA",
"{. c #ECF6FB",
"}. c #EDF6FB",
"|. c #F4F8FC",
/* pixels */
"                                                                                                                                ",
"                                                                                                                                ",
"                                                                                                                                ",
"                                                                                                                                ",
"                                                                                                                                ",
"                                                                                                                                ",
"                                                                                                                                ",
"                                                                          Y                                                     ",
"                                                                          Y                                                     ",
"                                                                    Y Y   Y                                                     ",
"                                                                    Y H     Y Y                                                 ",
"                                                                        Y   Y Y                                                 ",
"                                                                        Y                                                       ",
"                            z s z                                       Y                                                       ",
"                        3 X X [ M.g.r.                                                                                          ",
"                    g X X $ i.c.~ ~ ~ ~                                                                                         ",
"                  z X X X i.J.~ ~ ~ ~ ~ ~                                                                                       ",
"          5 5 5 R X X X [ J.i.~ ~ ~ ~ ~ ~                                                                                       ",
"          5 5 5 8 X X X M.J.;.~ ~ ~ ~ ~ ~ ~                                                                                     ",
"          5 5 5 G % X e J.J.$.~ ~ ~ ~ ~ ~ ~                                                                                     ",
"          5     . & X | J.J.:.~ ~ ~ ~ ~ ~ ~ ~                                                                                   ",
"              V X X X <.J.J.l.~ ~ ~ ~ ~ ~ ~ ~                                                                                   ",
"              N X X X 5.J.J.J.` ~ ~ ~ ~ ~ ~ ~ ~                                                                                 ",
"              V X X X 2.J.J.J.l.~ ~ ~ ~ ~ ~ ~ ~                                                                                 ",
"              [ X X X =.J.J.J.J.5.~ ~ ~ ~ ~ ~ ~ ~                                                                               ",
"                X X X [ J.J.J.J.J.=.~ ~ ~ ~ ~ ~ ~                                                                               ",
"                X X X g J.J.J.J.J.J.$.~ ~ ~ ~ ~ ~ ~                                                                             ",
"                3 X X : J.J.J.J.J.J.J.$.~ ~ ~ ~ ~ ~                                                                             ",
"                s X X X z.J.J.J.J.J.J.J.#.~ ~ ~ ~ ~ ~                                                                           ",
"                V X X X 2.J.J.J.J.J.J.J.J.} ~ ~ ~ ~ ~                                                                           ",
"                  X X X g J.J.J.J.J.J.J.J.M.~ ~ ~ ~ ~ ~                                                                         ",
"                  e X X $ C.J.J.J.J.J.J.J.J.g.~ ~ ~ ~ ~ ~                                                                       ",
"                  z X X X q.J.J.J.J.J.J.J.J.J.$.~ ~ ~ ~ ~                                                                       ",
"                    X X X D J.J.J.J.J.J.J.J.J.J.~ ~ ~ ~ ~ ~                                                                     ",
"                    , X X 3 J.J.J.J.J.J.J.J.J.J.0.~ ~ ~ ~ ~ ~                                                                   ",
"                    s X X X z.J.J.J.J.J.J.J.J.J.J.~ ~ ~ ~ ~ ~                                                                   ",
"                    N X X X 5.J.J.J.J.J.J.J.J.J.J.e.~ ~ ~ ~ ~ ~                                                                 ",
"                      X X X | J.J.J.J.J.J.J.J.J.J.J.~ ~ ~ ~ ~ ~ ~                                                               ",
"                      X X X s J.J.J.J.J.J.J.J.J.J.J.0.~ ~ ~ ~ ~ ~ ~                                       Y Y                   ",
"                      3 X X :       J.q.s 2.J.J.J.J.J.~ ~ ~ ~ ~ ~ ~ ~                               Y     Y                     ",
"                      s X X X l.      z X X e z.J.J.J.0.~ ~ ~ ~ ~ ~ ~ ~                             Y Y Y                       ",
"                      z X X X <.        e X X 3 c.J.J.J.~ ~ ~ ~ ~ ~ ~ ~ ~                                   Y Y Y               ",
"                      [ X X X V           : X X e J.J.J.r.~ ~ ~ ~ ~ ~ ~ ~ ~                             Y Y                     ",
"                        X X X z           A X X X 2.J.J.J.#.~ ~ ~ ~ ~ ~ ~ ~ ~ ~                         Y                       ",
"                        X X X N             : X X 9 J.J.J.M.~ ~ ~ ~ ~ ~ ~ ~ ~ ~ ~ ~                                             ",
"                        , X X N             s X X X l.J.J.J.i.~ ~ ~ ~ ~ ~ ~ ~ ~ ~ $.C.J.J.                                      ",
"                        0 X X D             N X X X =.J.J.J.J.r.~ ~ ~ ~ ~ ~ ~ #.g.J.J.J.J.J.J.J.J.J.                            ",
"                        s X X                 X X X N J.J.J.J.J.c.:.#.~ #.>.c.J.J.J.J.J.J.J.J.J.J.J.J.J.J.                      ",
"            H           z X X                 X X X e J.J.J.J.J.J.J.J.J.J.J.J.J.J.J.J.J.J.'.`.!.J.J.J.J.J.J.J.J.                ",
"            Y           N X X                 3 X X $ J.J.J.J.J.J.J.J.J.J.J.J.J.J.J.J.J.J.(.]._.Y./.!.Y.J.J.J.J.J.              ",
"      Y     Y           D X X                 s X X X i.J.J.J.J.J.J.J.J.J.J.J.J.J.J.J.J.J.J.J.J.E.{.|.[.(.R.J.J.J.J.            ",
"      Y Y                 X X                   X X X o.J.J.J.J.J.J.J.J.J.J.J.J.J.J.J.J.J.J.J.J.J.Y.~.`.|.{.^.J.J.J.J.          ",
"              Y Y         X X                   e X X : C.J.J.J.J.J.J.J.J.J.J.J.J.J.J.J.J.J.J.J.J.J.J.J.W.`.].J.J.J.J.J.        ",
"          Y               X :                     : X X V J.J.J.J.J.J.J.J.J.J.J.J.J.J.J.J.J.J.J.J.J.J.J.J.J.J.J.J.J.J.J.        ",
"          Y               X 3                       : X X | J.J.J.J.J.J.J.J.J.J.J.J.J.J.J.J.J.J.J.J.J.J.J.J.J.J.J.J.J.J.J.      ",
"                          3 e                         e X X s i.J.J.J.J.J.J.J.J.J.J.J.J.J.J.J.J.J.J.J.J.J.J.J.J.J.J.J.J.J.      ",
"                                                            N z o.                                                              ",
"                                                                                                                                ",
"                                                                                                                                ",
"                                                                                                                                ",
"                                                                                                                                ",
"                                                                                                                                ",
"                                                                                                                                ",
"                                                                                                                                "
};
