/* XPM */
static char *_e4368cd1a4b41b49bfcacb5430a2f33qqRvErByVT34LkXX[] = {
/* columns rows colors chars-per-pixel */
"64 64 164 2 ",
"   c None",
".  c #4B230C",
"X  c #462315",
"o  c #432616",
"O  c #552A12",
"+  c #59351E",
"@  c #663214",
"#  c #673A1F",
"$  c #6D3B1D",
"%  c #713F17",
"&  c #583521",
"*  c #6A4227",
"=  c #684527",
"-  c #734527",
";  c #754A27",
":  c #784B25",
">  c #7D4927",
",  c #7D4E27",
"<  c #724728",
"1  c #7B4C2B",
"2  c #724A33",
"3  c #7E4F30",
"4  c #006847",
"5  c #6E4F44",
"6  c #CE1126",
"7  c #86542C",
"8  c #905D30",
"9  c #906032",
"0  c #986232",
"q  c #936339",
"w  c #A06B38",
"e  c #AC743B",
"r  c #886753",
"t  c #8E6E55",
"y  c #8E756B",
"u  c #5C8E79",
"i  c #5F997B",
"p  c #648B7A",
"a  c #A48848",
"s  c #9A9C64",
"d  c #989D66",
"f  c #938077",
"g  c #9E8674",
"h  c #9F8974",
"j  c #B38E65",
"k  c #B4896A",
"l  c #BE946D",
"z  c #B99271",
"x  c #A0A371",
"c  c #ACAC7B",
"v  c #D7904B",
"b  c #E5974C",
"n  c #CBAA4F",
"m  c #C09F7C",
"M  c #C6A360",
"N  c #C4A07D",
"B  c #D4A976",
"V  c #DDB677",
"C  c #D2C07E",
"Z  c #22858F",
"A  c #459599",
"S  c #7CA89C",
"D  c #559CA2",
"F  c #64A0A9",
"G  c #63A7AA",
"H  c #6BA9B0",
"J  c #6DD2F0",
"K  c #AA968B",
"L  c #AEB289",
"P  c #B9A599",
"I  c #BDA79A",
"U  c #BBBE9B",
"Y  c #BDBD98",
"T  c #95A4AA",
"R  c #93B3AD",
"E  c #9DBAAA",
"W  c #A2B7A6",
"Q  c #A6B8AB",
"!  c #BEB2AC",
"~  c #A6AAB0",
"^  c #BDBFBF",
"/  c #C09D87",
"(  c #D9BB8F",
")  c #C0AB9B",
"_  c #C2AC9E",
"`  c #C4BA94",
"'  c #CEBD9A",
"]  c #C0B3AB",
"[  c #C3BBB8",
"{  c #D3B8B3",
"}  c #BEC098",
"|  c #BDC09F",
" . c #A6C1B6",
".. c #ACCABE",
"X. c #C2C19A",
"o. c #C6C59C",
"O. c #E4C28D",
"+. c #EAC692",
"@. c #CECBA0",
"#. c #D1CFAD",
"$. c #D2D1AF",
"%. c #D6D0AF",
"&. c #D8D1A8",
"*. c #C6CDB2",
"=. c #CAC4BC",
"-. c #C3CFB8",
";. c #DCC3B7",
":. c #DDCBBB",
">. c #D5D1B0",
",. c #D4D2B2",
"<. c #DAD5B2",
"1. c #DBD6B2",
"2. c #D3D6BD",
"3. c #D8D5B9",
"4. c #D7D8BF",
"5. c #8CC4C6",
"6. c #BAD4C9",
"7. c #B2CCD0",
"8. c #B5DFE8",
"9. c #D8D9C7",
"0. c #D8DAC6",
"q. c #DDDDC7",
"w. c #D5DBC8",
"e. c #C3D9DD",
"r. c #DEDAD9",
"t. c #E7D8D0",
"y. c #DEE1D8",
"u. c #E3E0C6",
"i. c #EBE3C1",
"p. c #E0E4CF",
"a. c #F2E5C7",
"s. c #F3E7C9",
"d. c #E6E3D5",
"f. c #E3E4D5",
"g. c #E2E4D6",
"h. c #E5E7D8",
"j. c #E4EADC",
"k. c #E7EADE",
"l. c #EDE9D8",
"z. c #F7E0D3",
"x. c #FFE7DD",
"c. c #DFDEE0",
"v. c #CFECE3",
"b. c #CDE9EC",
"n. c #ECEDE2",
"m. c #F0E6E0",
"M. c #F1EAE6",
"N. c #FCE8E9",
"B. c #EFF2EC",
"V. c #FBF4E2",
"C. c #F4F5EF",
"Z. c #F5F6EF",
"A. c #F8F7EF",
"S. c #F9F8EF",
"D. c #FEEDF1",
"F. c #FAF9F2",
"G. c #FDFBF6",
"H. c #FFFDF8",
"J. c #FFFFFA",
"K. c #FDFDFC",
"L. c #FFFEFD",
"P. c #FFFEFF",
"I. c #FEFFFF",
"U. c white",
/* pixels */
"                                                                                                                                ",
"                                                                                                                                ",
"                                                                                                                                ",
"                                                                                                                                ",
"                                                                                                                                ",
"                                                                                                                                ",
"                                                                                                                                ",
"                                                                                                                                ",
"                                                                                                                                ",
"                                                                                                                                ",
"                                                                                                                                ",
"                                                                                                                                ",
"    4 4 4 4 4 4 4 4 4 4 4 4 4 4 4 4 4 4 4 4 U.U.U.U.U.U.U.U.U.U.U.U.U.U.U.U.U.U.U.U.6 6 6 6 6 6 6 6 6 6 6 6 6 6 6 6 6 6 6 6     ",
"    4 4 4 4 4 4 4 4 4 4 4 4 4 4 4 4 4 4 4 4 U.U.U.U.U.U.U.U.U.U.U.U.U.U.U.U.U.U.U.U.6 6 6 6 6 6 6 6 6 6 6 6 6 6 6 6 6 6 6 6     ",
"    4 4 4 4 4 4 4 4 4 4 4 4 4 4 4 4 4 4 4 4 U.U.U.U.U.U.U.U.U.U.U.U.U.U.U.U.U.U.U.U.6 6 6 6 6 6 6 6 6 6 6 6 6 6 6 6 6 6 6 6     ",
"    4 4 4 4 4 4 4 4 4 4 4 4 4 4 4 4 4 4 4 4 U.U.U.U.U.U.U.U.U.U.U.U.U.U.U.U.U.U.U.U.6 6 6 6 6 6 6 6 6 6 6 6 6 6 6 6 6 6 6 6     ",
"    4 4 4 4 4 4 4 4 4 4 4 4 4 4 4 4 4 4 4 4 U.U.U.U.U.U.U.U.U.U.U.U.U.U.U.U.U.U.U.U.6 6 6 6 6 6 6 6 6 6 6 6 6 6 6 6 6 6 6 6     ",
"    4 4 4 4 4 4 4 4 4 4 4 4 4 4 4 4 4 4 4 4 U.U.U.U.U.U.U.U.U.U.U.U.U.U.U.U.U.U.U.U.6 6 6 6 6 6 6 6 6 6 6 6 6 6 6 6 6 6 6 6     ",
"    4 4 4 4 4 4 4 4 4 4 4 4 4 4 4 4 4 4 4 4 U.U.U.U.U.U.U.U.U.U.U.U.U.U.U.U.U.U.U.U.6 6 6 6 6 6 6 6 6 6 6 6 6 6 6 6 6 6 6 6     ",
"    4 4 4 4 4 4 4 4 4 4 4 4 4 4 4 4 4 4 4 4 U.U.U.U.U.U.U.U.U.U.U.U.U.U.U.U.U.U.U.U.6 6 6 6 6 6 6 6 6 6 6 6 6 6 6 6 6 6 6 6     ",
"    4 4 4 4 4 4 4 4 4 4 4 4 4 4 4 4 4 4 4 4 U.U.U.U.U.U.U.U.U.U.U.U.U.U.U.U.U.U.U.U.6 6 6 6 6 6 6 6 6 6 6 6 6 6 6 6 6 6 6 6     ",
"    4 4 4 4 4 4 4 4 4 4 4 4 4 4 4 4 4 4 4 4 U.U.U.U.U.U.U.U.U.U.U.U.U.U.U.U.U.U.U.U.6 6 6 6 6 6 6 6 6 6 6 6 6 6 6 6 6 6 6 6     ",
"    4 4 4 4 4 4 4 4 4 4 4 4 4 4 4 4 4 4 4 4 U.U.U.U.U.U.U.U.U.U.U.U.U.U.U.U.U.U.U.U.6 6 6 6 6 6 6 6 6 6 6 6 6 6 6 6 6 6 6 6     ",
"    4 4 4 4 4 4 4 4 4 4 4 4 4 4 4 4 4 4 4 4 U.U.U.U.U.U.U.U.U.U.U.U.U.U.U.U.U.U.U.U.6 6 6 6 6 6 6 6 6 6 6 6 6 6 6 6 6 6 6 6     ",
"    4 4 4 4 4 4 4 4 4 4 4 4 4 4 4 4 4 4 4 4 U.U.U.U.U.U.U.U.U.U.U.U.U.U.U.U.U.U.U.U.6 6 6 6 6 6 6 6 6 6 6 6 6 6 6 6 6 6 6 6     ",
"    4 4 4 4 4 4 4 4 4 4 4 4 4 4 4 4 4 4 4 4 U.U.U.U.U.U.U.U.U.:.z / t.U.U.U.U.U.U.U.6 6 6 6 6 6 6 6 6 6 6 6 6 6 6 6 6 6 6 6     ",
"    4 4 4 4 4 4 4 4 4 4 4 4 4 4 4 4 4 4 4 4 U.U.U.U.U.U.C.m.N j 0 @ < ) U.U.U.U.U.U.6 6 6 6 6 6 6 6 6 6 6 6 6 6 6 6 6 6 6 6     ",
"    4 4 4 4 4 4 4 4 4 4 4 4 4 4 4 4 4 4 4 4 U.U.U.U.U.C.$.V e w 9 > + O _ U.U.U.U.U.6 6 6 6 6 6 6 6 6 6 6 6 6 6 6 6 6 6 6 6     ",
"    4 4 4 4 4 4 4 4 4 4 4 4 4 4 4 4 4 4 4 4 U.U.U.U.U.U.l.C ( q # - * $ 3 M.U.U.U.U.6 6 6 6 6 6 6 6 6 6 6 6 6 6 6 6 6 6 6 6     ",
"    4 4 4 4 4 4 4 4 4 4 4 4 4 4 4 4 4 4 4 4 U.U.U.U.V.i.9.y.l 8 o 1 7 , % P U.U.U.U.6 6 6 6 6 6 6 6 6 6 6 6 6 6 6 6 6 6 6 6     ",
"    4 4 4 4 4 4 4 4 4 4 4 4 4 4 4 4 4 4 4 4 U.U.U.U.U.p.` a.m : ; t I r 2 K U.U.U.U.6 6 6 6 6 6 6 6 6 6 6 6 6 6 6 6 6 6 6 6     ",
"    4 4 4 4 4 4 4 4 4 4 4 4 4 4 4 4 4 4 4 4 U.U.g.*.x.z.%.n M 1 = & ] r.f [ 2.9.U.U.6 6 6 6 6 6 6 6 6 6 6 6 6 6 6 6 6 6 6 6     ",
"    4 4 4 4 4 4 4 4 4 4 4 4 4 4 4 4 4 4 4 4 U.U.q.@.N.T -.O.+.k 5 X . g ^ c.o.4.U.U.6 6 6 6 6 6 6 6 6 6 6 6 6 6 6 6 6 6 6 6     ",
"    4 4 4 4 4 4 4 4 4 4 4 4 4 4 4 4 4 4 4 4 U.U.H.>.B.G D ~ 7.e.' a h y ;.j.#.H.U.U.6 6 6 6 6 6 6 6 6 6 6 6 6 6 6 6 6 6 6 6     ",
"    4 4 4 4 4 4 4 4 4 4 4 4 4 4 4 4 4 4 4 4 U.U.U.| X.H...H A Z u i S F D.} L U.U.U.6 6 6 6 6 6 6 6 6 6 6 6 6 6 6 6 6 6 6 6     ",
"    4 4 4 4 4 4 4 4 4 4 4 4 4 4 4 4 4 4 4 4 U.U.U.G.&.>.b.J  .B p R 5.6.w.1.A.U.U.U.6 6 6 6 6 6 6 6 6 6 6 6 6 6 6 6 6 6 6 6     ",
"    4 4 4 4 4 4 4 4 4 4 4 4 4 4 4 4 4 4 4 4 U.U.U.U.C.x 3.v.E b v W 8.s.s g.U.U.U.U.6 6 6 6 6 6 6 6 6 6 6 6 6 6 6 6 6 6 6 6     ",
"    4 4 4 4 4 4 4 4 4 4 4 4 4 4 4 4 4 4 4 4 U.U.U.U.U.S.1.c Y Q ! U s u.F.U.U.U.U.U.6 6 6 6 6 6 6 6 6 6 6 6 6 6 6 6 6 6 6 6     ",
"    4 4 4 4 4 4 4 4 4 4 4 4 4 4 4 4 4 4 4 4 U.U.U.U.U.U.U.n.j.=.{ d.h.U.U.U.U.U.U.U.6 6 6 6 6 6 6 6 6 6 6 6 6 6 6 6 6 6 6 6     ",
"    4 4 4 4 4 4 4 4 4 4 4 4 4 4 4 4 4 4 4 4 U.U.U.U.U.U.U.U.U.U.U.U.U.U.U.U.U.U.U.U.6 6 6 6 6 6 6 6 6 6 6 6 6 6 6 6 6 6 6 6     ",
"    4 4 4 4 4 4 4 4 4 4 4 4 4 4 4 4 4 4 4 4 U.U.U.U.U.U.U.U.U.U.U.U.U.U.U.U.U.U.U.U.6 6 6 6 6 6 6 6 6 6 6 6 6 6 6 6 6 6 6 6     ",
"    4 4 4 4 4 4 4 4 4 4 4 4 4 4 4 4 4 4 4 4 U.U.U.U.U.U.U.U.U.U.U.U.U.U.U.U.U.U.U.U.6 6 6 6 6 6 6 6 6 6 6 6 6 6 6 6 6 6 6 6     ",
"    4 4 4 4 4 4 4 4 4 4 4 4 4 4 4 4 4 4 4 4 U.U.U.U.U.U.U.U.U.U.U.U.U.U.U.U.U.U.U.U.6 6 6 6 6 6 6 6 6 6 6 6 6 6 6 6 6 6 6 6     ",
"    4 4 4 4 4 4 4 4 4 4 4 4 4 4 4 4 4 4 4 4 U.U.U.U.U.U.U.U.U.U.U.U.U.U.U.U.U.U.U.U.6 6 6 6 6 6 6 6 6 6 6 6 6 6 6 6 6 6 6 6     ",
"    4 4 4 4 4 4 4 4 4 4 4 4 4 4 4 4 4 4 4 4 U.U.U.U.U.U.U.U.U.U.U.U.U.U.U.U.U.U.U.U.6 6 6 6 6 6 6 6 6 6 6 6 6 6 6 6 6 6 6 6     ",
"    4 4 4 4 4 4 4 4 4 4 4 4 4 4 4 4 4 4 4 4 U.U.U.U.U.U.U.U.U.U.U.U.U.U.U.U.U.U.U.U.6 6 6 6 6 6 6 6 6 6 6 6 6 6 6 6 6 6 6 6     ",
"    4 4 4 4 4 4 4 4 4 4 4 4 4 4 4 4 4 4 4 4 U.U.U.U.U.U.U.U.U.U.U.U.U.U.U.U.U.U.U.U.6 6 6 6 6 6 6 6 6 6 6 6 6 6 6 6 6 6 6 6     ",
"    4 4 4 4 4 4 4 4 4 4 4 4 4 4 4 4 4 4 4 4 U.U.U.U.U.U.U.U.U.U.U.U.U.U.U.U.U.U.U.U.6 6 6 6 6 6 6 6 6 6 6 6 6 6 6 6 6 6 6 6     ",
"    4 4 4 4 4 4 4 4 4 4 4 4 4 4 4 4 4 4 4 4 U.U.U.U.U.U.U.U.U.U.U.U.U.U.U.U.U.U.U.U.6 6 6 6 6 6 6 6 6 6 6 6 6 6 6 6 6 6 6 6     ",
"    4 4 4 4 4 4 4 4 4 4 4 4 4 4 4 4 4 4 4 4 U.U.U.U.U.U.U.U.U.U.U.U.U.U.U.U.U.U.U.U.6 6 6 6 6 6 6 6 6 6 6 6 6 6 6 6 6 6 6 6     ",
"    4 4 4 4 4 4 4 4 4 4 4 4 4 4 4 4 4 4 4 4 U.U.U.U.U.U.U.U.U.U.U.U.U.U.U.U.U.U.U.U.6 6 6 6 6 6 6 6 6 6 6 6 6 6 6 6 6 6 6 6     ",
"    4 4 4 4 4 4 4 4 4 4 4 4 4 4 4 4 4 4 4 4 U.U.U.U.U.U.U.U.U.U.U.U.U.U.U.U.U.U.U.U.6 6 6 6 6 6 6 6 6 6 6 6 6 6 6 6 6 6 6 6     ",
"                                                                                                                                ",
"                                                                                                                                ",
"                                                                                                                                ",
"                                                                                                                                ",
"                                                                                                                                ",
"                                                                                                                                ",
"                                                                                                                                ",
"                                                                                                                                ",
"                                                                                                                                ",
"                                                                                                                                ",
"                                                                                                                                ",
"                                                                                                                                "
};
