/* XPM */
static char *d70e89a9a87c4593f7ac29e35dd7790diDtg44cZpQNSvS41[] = {
/* columns rows colors chars-per-pixel */
"64 64 200 2 ",
"   c None",
".  c #7F3D32",
"X  c #754532",
"o  c #7C4935",
"O  c #794733",
"+  c #813F34",
"@  c #86463B",
"#  c #824D39",
"$  c #844A37",
"%  c #8C523A",
"&  c #85533E",
"*  c #9B5A3E",
"=  c #94573D",
"-  c #8B4D41",
";  c #8C5A45",
":  c #91574A",
">  c #A25E41",
",  c #886C4B",
"<  c #9D6A57",
"1  c #837C4C",
"2  c #A76143",
"3  c #A86243",
"4  c #AB6649",
"5  c #AD6A4C",
"6  c #A16C5E",
"7  c #B47658",
"8  c #A67465",
"9  c #AA7C69",
"0  c #BC7E64",
"q  c #C66767",
"w  c #CA6969",
"e  c #C76868",
"r  c #D36E6E",
"t  c #D77070",
"y  c #D97070",
"u  c #DB7979",
"i  c #C87269",
"p  c #EC7A7A",
"a  c #F47E7E",
"s  c #729F50",
"d  c #70A150",
"f  c #75AA52",
"g  c #78AF53",
"h  c #7AB454",
"j  c #7EBB56",
"k  c #8A9457",
"l  c #AA8467",
"z  c #B68469",
"x  c #AF8070",
"c  c #B38575",
"v  c #B78C7B",
"b  c #88AF62",
"n  c #86BA65",
"m  c #8CBD6B",
"M  c #89B967",
"N  c #92BC6F",
"B  c #B1BD67",
"V  c #BCB56B",
"C  c #A8AC69",
"Z  c #C18A6E",
"A  c #D99D76",
"S  c #F38C7F",
"D  c #E5967A",
"F  c #CBAA70",
"G  c #FFBC7E",
"H  c #86C958",
"J  c #8DD75B",
"K  c #8DD85B",
"L  c #93D45D",
"P  c #9BCE5F",
"I  c #9DCC61",
"U  c #9DC47B",
"Y  c #96C175",
"T  c #9CD568",
"R  c #AAC265",
"E  c #A1CA63",
"W  c #FFCD7E",
"Q  c #FFC57F",
"!  c #FFD47D",
"~  c #BC7687",
"^  c #3D8CEA",
"/  c #5B8BDA",
"(  c #6997DF",
")  c #7699DC",
"_  c #6E86CB",
"`  c #4C8CE3",
"'  c #418DE9",
"]  c #448CE6",
"[  c #5596E6",
"{  c #4E90E6",
"}  c #78ABE4",
"|  c #BE9A86",
" . c #AFBA85",
".. c #9688BB",
"X. c #BC85A6",
"o. c #B08CB1",
"O. c #C09A86",
"+. c #C79C85",
"@. c #D98597",
"#. c #CC849D",
"$. c #EC848D",
"%. c #E38989",
"&. c #FF8383",
"*. c #FF8C83",
"=. c #FF8E8E",
"-. c #F28388",
";. c #FF9382",
":. c #FF9B81",
">. c #FF938F",
",. c #FF9292",
"<. c #FF9D9B",
"1. c #CAA693",
"2. c #D2AE97",
"3. c #D3B29B",
"4. c #DFA482",
"5. c #FFA581",
"6. c #FFAB80",
"7. c #FFB080",
"8. c #FBA39A",
"9. c #C586A2",
"0. c #C49CB5",
"q. c #D8BAA5",
"w. c #FFAAAA",
"e. c #FBA1A1",
"r. c #FFBBAF",
"t. c #EDB4BC",
"y. c #FFB5B5",
"u. c #F6B6BA",
"i. c #FFB8B8",
"p. c #FFBBB4",
"a. c #E6B2A5",
"s. c #B8C988",
"d. c #B4CF91",
"f. c #BBD298",
"g. c #CBC78E",
"h. c #C3D69F",
"j. c #FFD682",
"k. c #FFD98E",
"l. c #FFDB93",
"z. c #FFDD99",
"x. c #DDC2AD",
"c. c #C8D8A5",
"v. c #D4D6AD",
"b. c #DFDFB9",
"n. c #E1C0A0",
"m. c #E9CEB6",
"M. c #FFC6BC",
"N. c #E8D4BD",
"B. c #DCE1B8",
"V. c #FFE2AA",
"C. c #E3E4BE",
"Z. c #FFE4B3",
"A. c #FFE9BE",
"S. c #FFE6B8",
"D. c #919FD3",
"F. c #818AC7",
"G. c #9DA2D1",
"H. c #BEB1CB",
"J. c #94B9E3",
"K. c #FF99C0",
"L. c #FC99CC",
"P. c #F999D7",
"I. c #D7AEC3",
"U. c #DAB0C2",
"Y. c #FFA6C4",
"T. c #C899FF",
"R. c #DC99FF",
"E. c #D599EF",
"W. c #F599E4",
"Q. c #ED99FF",
"!. c #E599FF",
"~. c #F198F1",
"^. c #D5AEF7",
"/. c #DBB7F2",
"(. c #EBA5FA",
"). c #E7AAE1",
"_. c #D3DADD",
"`. c #CBD6DD",
"'. c #FFC7C4",
"]. c #FFDECC",
"[. c #F9D8C6",
"{. c #FFDAD3",
"}. c #EFDBC5",
"|. c #EAE7C5",
" X c #EAE8C5",
".X c #E5E5C0",
"XX c #FFEAC5",
"oX c #F5E3CA",
"OX c #F2EBCC",
"+X c #FFEDCC",
"@X c #FBE2CC",
"#X c #FCEDD4",
"$X c #FCEAD7",
"%X c #FEF0D7",
"&X c #FFF1D9",
"*X c #E1E1DC",
"=X c #E1C1EE",
"-X c #F2DDE2",
";X c #F7C9EA",
":X c #F5E1E0",
/* pixels */
"                                                                                                                                ",
"                                                                                                                                ",
"                                                    y ~ ^ ^ ^ ^ ^ ^ ^                                                           ",
"                                              t w q t _ ^ ^ ^ ^ ^ ^ ^ ^ ^ ^                                                     ",
"                                          r e q y a $.^ ^ ^ ^ ^ ^ ^ ^ ^ ^ ^ ^                                                   ",
"                                      y e q w p &.&.9.^ ^ ^ ^ ^ ^ ^ ^ ^ ^ ^ ^ ^ X.                                              ",
"                                    w q q r &.&.&.&.#.^ ^ ^ ^ ^ ^ ^ ^ ^ ^ ^ ^ ^ 9.&.                                            ",
"                                  w q q r &.&.&.&.&.$.^ ^ ^ ^ ^ ^ ^ ^ ^ ^ ^ ^ ^ $.&.&.&.                                        ",
"                                0 q q r &.&.&.&.&.&.&.` ^ ^ ^ ^ ^ ^ ^ ^ ^ ^ ^ ` &.&.&.&.&.                                      ",
"                              f s l w &.&.&.&.&.&.&.&.9.^ ^ ^ ^ ^ ^ ^ ^ ^ ^ ^ X.&.&.&.&.S J                                     ",
"                            h d d d C &.&.&.&.&.&.&.&.&.F.^ ^ ^ ^ ^ ^ ^ ^ ^ _ &.&.&.&.&.B K K                                   ",
"                            f d d f J D &.&.&.&.&.&.&.&.&...^ ^ ^ ^ ^ ^ ^ ..&.&.&.&.&.&.L K K K                                 ",
"                            d d d j K L &.&.&.&.&.&.&.&.&.&.-.../ ` / ..-.&.&.&.&.&.&.&.L K K K K                               ",
"                          h d d d H K K A &.&.&.&.&.&.&.&.&.&.&.&.&.&.&.&.&.&.&.*.&.&.&.P K K K K K J                           ",
"                          f d d d J K K R &.&.&.&.&.&.&.&.&.&.&.&.&.&.&.&.&.&.;.! W *.&.F K K K K K K K                         ",
"                          d d d g K K K L &.&.&.&.&.*.G W Q :.&.&.&.&.&.&.&.&.:.! ! ;.&.&.L K K K K K K K                       ",
"                          d d d j K K K J &.&.&.&.*.W ! ! ! ! :.&.&.&.&.&.&.&.&.:.:.&.&.&.&.I K K K K K B &.&.&.                ",
"                        g d d d H K K K L &.&.&.&.5.! ! ! ! ! G &.&.&.&.&.&.&.&.&.&.&.&.&.&.&.D V B F S &.&.&.&.&.&.&.          ",
"                        f d d f K K K K L &.&.&.&.5.! ! ! ! ! Q &.&.&.&.&.&.&.&.&.&.&.&.&.&.&.&.&.&.&.&.&.&.&.&.=.,.,.,.        ",
"                      h s s d H K K K K R &.&.&.&.;.! ! ! ! ! 6.&.&.&.&.&.&.&.&.&.&.&.&.&.&.&.&.&.&.&.&.=.e.i.i.i.i.i.i.i.      ",
"                      f d d f J K K K K A &.&.&.&.&.5.! ! ! G &.&.&.&.&.&.&.&.&.&.&.&.&.&.&.&.&.&.D 8.i.i.i.i.i.i.i.i.i.i.      ",
"                    h d d d H K K K K L &.&.&.&.&.&.&.*.:.;.&.&.&.&.&.&.&.&.&.&.&.&.&.&.&.&.&.S I K g.i.i.i.i.i.i.i.i.i.i.      ",
"                    d d d j K K K K K A &.&.&.&.&.&.&.&.&.&.&.&.&.&.&.&.&.&.&.-.&.&.&.&.&.&.4.K K K n.i.i.i.i.i.U.{ ^ ^ (       ",
"                  f d d f J K K K K R &.&.&.&.&.&.&.&.&.&.&.&.&.&.&.&.&.@./ ^ ^ ^ ` o.&.&.w.i.s.T g.i.i.i.i.i.U.^ ^ ^ ^         ",
"                g d d d H K K K K E &.&.&.&.&.&.&.&.&.&.&.&.&.&.&.&.&...^ ^ ^ ^ ^ ^ ^ H.].i.i.i.i.i.i.i.i.i.i.{ ^ ^ ^ ^         ",
"              h d d d H K K K J V &.&.&.&.&.&.&.:.7.:.&.&.&.&.&.&.&.X.^ ^ ^ ^ ^ ^ [ _.&X&X@Xi.i.i.i.i.i.i.i.i.^ ^ ^ ^ ^         ",
"              k s d h K K L B S &.&.&.&.&.&.&.;.! ! ! :.&.&.&.&.&.&.] ^ ^ ^ ^ ^ J.$X&X&X&X&X].i.i.i.i.i.i.i.i.' ^ ^ ^           ",
"            r q w i A D S &.&.&.&.&.&.&.&.&.&.6.! ! ! 6.&.&.&.&.&.@.^ ^ ^ ^ [ `.&X&X&X&X&X&X&X[.i.i.i.i.i.i.i.( ^ ^             ",
"          y q q q p &.&.&.&.&.&.&.&.&.&.&.&.&.;.! ! ! ;.&.&.&.&.&.o.^ ^ ' J.$X&X&X&X&X&X&X&X&X&XM.i.i.i.i.i.i.t.' ^             ",
"          w q q r &.&.&.&.&.&.&.&.&.&.&.&.&.&.&.;.5.;.&.&.&.&.&.&.0.^ } *X&X&X&X&X&X&X&X&X&X&X&X&Xi.i.i.i.i.i.i.u.              ",
"        r q q q a &.&.&.&.&.&.&.&.&.&.&.&.&.&.&.&.&.&.&.&.&.&.&.&.a._.&X&X&X&X&X&X&X&X&X&X&X&X&X&X@Xi.i.i.i.i.i.                ",
"        w q q y &.&.&.&.&.&.&.&.&.&.&.&.&.&.&.&.&.&.&.&.&.&.&.8.[.&X&X&X&X&X&X&X&X&X&X&X&X&X&X&X&X&X'.i.i.i.i.                  ",
"      u u %.%.e.w.<.=.&.&.&.&.&.&.&.&.&.&.&.&.&.&.&.&.&.>.r.@X&X&X&X&X&X&X&X&X&X&X&X&X&X&X&X&X&X&X&X$Xi.i.i.                    ",
"      i.i.i.i.i.i.i.i.i.i.w.<.=.&.&.&.&.&.&.&.&.&.<.r.].&X&X&X&X&X&X&X&X&X&X&X&X&X%Xc.c.OX&X&X&X&X&X&X'.                        ",
"      i.i.i.i.i.i.i.i.i.i.i.i.i.i.i.y.y.p.M.M.].#X&X&X&X&X&X&X&X+XA.XX%X&X&X&X&X&X&XOXn m  X&X&X&X&X&X&X                        ",
"      i.i.i.i.i.i.i.i.i.i.i.i.i.i.i.i.i.&X&X&X&X&X&X&X&X&X&XXXk.! l.! j.S.&X&X&X&X&X&XU n s.&X&X&X&X&X&X                        ",
"      i.i.i.i.u.G.) D.t.i.i.i.i.i.i.i.'.&X&X&X&X&X&X&X&X&X+Xj.! ! l.! ! ! Z.&X&X&Xx.O.v.M k m.&X#X&X&X&X&X                      ",
"        i.i.I.' ^ ^ ^ ^ H.i.i.i.i.i.i.].&X&X&X&X&X&X&X&X&Xl.! ! ! l.! ! ! j.#X&X&X1.@ . . # : O.@ 3.&X&X&X                      ",
"          u.' ^ ^ ^ ^ ^ ^ t.i.i.i.i.M.&X&X&X&X&X&X&X&X&X+X! ! ! ! l.! ! ! ! Z.&X&X&X}.3.1.2.+ . 8 oX&X#X&X                      ",
"              ^ ^ ^ ^ ^ ^ D.i.i.i.i.@X&X&X&X&X&X&X&X&X&XXXl.l.l.l.z.l.l.l.l.Z.&X&X&X&X&X&X&X8 - #XC.d.OX&X                      ",
"                    ^ ^ ^ ) i.i.i.[.&X&X&X&X&X&X&X&X&X&X+X! ! ! ! l.! ! ! ! Z.&X&X&X&X&X&X&Xv , n n U &X&X&X                    ",
"                                ].&X&X&X&X&X&X&X&X&X&X&X&Xk.! ! ! l.! ! ! ! +X&X&X&X&X&X&X&X6 b n m C.&X&X&X                    ",
"                                &X&X&X&X&X&X&X&X&X&X&X&X&XXX! ! ! l.! ! ! V.&X&X&X&X&X1.q.x.. | .X#X&X&X&X&X                    ",
"                              &X&X&X&X&X&X&X&X&X&X&X&X&X&X&XA.j.! l.! j.V.&X&X&X&X&X&X9 . @ : #X&X&X&X&X&X&X                    ",
"                            &X&X&X&X&X&X&X&X&X&X&X&X&X&X&X&X&X%XA.S.S.#X&X&X&X&X&Xv.#X#X8 . q.&X&X&X&X&X&X&X                    ",
"                          K.{.&X&X&X&X&X&X&X&X&X&X&X&X&X&X&X&X&X&X&X&X&X&X&X&X&X&Xd.m U C @ #X&X&X&X&X&X&X&X                    ",
"                        K.K.K.{.&X&X&X&X&X&X&X&X&X&X&X&X&X&X&X%X&X&X&X&X&X&X&X&X&X Xm n n ; #X#X#X&X&X&X&X&X                    ",
"                      K.K.K.K.Y.&X&X&X&X&X&X&X&X&X&X&XoXx & O X o < 3.&X&X&X&X&X&X&X Xf. .# v @ c &X&X&X&X                      ",
"                    K.K.K.K.K.K.{.&X&X&X&X&X&X&X&X&X2.o X X $ * 2 3 3 z oX&X&X&X&X&X&X&X#X@ . < }.&X#X&X&X                      ",
"            Q.Q.Q.  K.K.K.K.K.K.'.&X&X&X&X&X&X&X&X2.X X X % 2 3 3 3 3 3 7 oX&X&X&X&X&X&X&Xc . N. Xv.c.&X&X                      ",
"        Q.Q.Q.Q.Q.Q.W.K.K.K.K.K.).^.^.=X:X&X&X&XoXo X X % 3 3 3 3 3 3 3 3 Z &X&X&X&X&X&X&Xq.# N n n B.&X&X                      ",
"        Q.Q.Q.Q.Q.Q.Q.K.K.K.K.T.T.T.T.T.T.=X&X&X9 X X o 2 3 3 3 3 3 3 3 3 3 m.&X&X&X&X&X&Xq.1 n n d.&X&X&X                      ",
"        Q.Q.Q.Q.Q.Q.Q.P.K.K.T.T.T.T.T.T.T./.&X&X# X X = 3 3 3 3 3 3 3 3 3 3 +.&X&X&Xx.x.&X8 # b. X&X&X&X                        ",
"          Q.Q.Q.Q.Q.Q.Q.L.E.T.T.T.T.T.T.T.-X&XoXX X X > 3 3 3 3 3 3 3 3 3 3 0 &X&X&X6 . < . O.&X&X&X&X&X                        ",
"            Q.Q.Q.Q.Q.Q.W.!.R.T.T.T.T.T./.&X&Xq.X X O 3 3 3 3 3 3 3 3 3 3 3 7 &X&X&X#XO.. - #X&X&X&X&X                          ",
"              L.P.P.K.K.K.Q.Q.Q.R.T.T./.&X&X&XO.X X # 3 3 3 3 3 3 3 3 3 3 3 7 &X Xh. X#X@ x &X&X&X&X&X                          ",
"              K.K.K.K.K.K.Q.Q.Q.Q.(.-X&X&X&X&Xl X X # 3 3 3 3 3 3 3 3 % > 3 Z &X&XY n m , c &X&X&X&X&X                          ",
"            K.K.K.K.K.K.K.Q.Q.Q.Q.Q.$X&X&X&X&X< X X % 3 3 3 3 3 3 3 3 * 2 3 +.&X&XB.m n b 8 &X&X&X&X                            ",
"            K.K.K.K.K.K.L.Q.Q.Q.Q.Q.;X&X&X&X&X; X X = 3 3 3 3 3 3 3 3 3 3 3 2.&X&X&XOXB.l : &X&X&X                              ",
"            K.K.K.K.K.K.~.Q.Q.Q.Q.Q.(.  &X&X&X# X X * 3 3 3 3 3 3 3 3 3 3 3 q.&X&X&X&X&X| + #X                                  ",
"              K.K.K.K.    Q.Q.Q.Q.Q.          ; o X > 3 3 3 3 3 3 3 3 3 3 3 m.&X&X&X&X&X                                        ",
"              K.K.          Q.Q.Q.Q.                    3 4 4 4 4 4 4 5 7 7 }.&X                                                ",
"                                                                                                                                ",
"                                                                                                                                "
};
