/* XPM */
static char *_21ed1e0a3be4bd099366c496e51990cnn8KtcvDuO03OcEy[] = {
/* columns rows colors chars-per-pixel */
"64 64 180 2 ",
"   c None",
".  c #FBDF6E",
"X  c #FEDE73",
"o  c #F2DA7C",
"O  c #FFE266",
"+  c #FCE16B",
"@  c #F8E275",
"#  c #F6E377",
"$  c #7844C1",
"%  c #7D4CC5",
"&  c #C56CB7",
"*  c #C972BA",
"=  c #CD7ABD",
"-  c #844FCD",
";  c #8051C7",
":  c #8453CB",
">  c #875BCD",
",  c #885DCE",
"<  c #8D5BD7",
"1  c #8954D3",
"2  c #925DDD",
"3  c #8C63D1",
"4  c #936ED7",
"5  c #9773D9",
"6  c #9976DB",
"7  c #9B7ADD",
"8  c #9762E2",
"9  c #9966E2",
"0  c #9A6DE2",
"q  c #9A71E1",
"w  c #9F7FE1",
"e  c #A272E3",
"r  c #A77BE5",
"t  c #AA7CE6",
"y  c #AA77E6",
"u  c #B77FE6",
"i  c #CF78C2",
"p  c #D181BF",
"a  c #EF8BBD",
"s  c #F08DBE",
"d  c #EF90BF",
"f  c #E6D38D",
"g  c #FCD88E",
"h  c #FCD695",
"j  c #EAE48D",
"k  c #E0E49E",
"l  c #D9CCA2",
"z  c #D3C8AB",
"x  c #CDC7B7",
"c  c #D0C6B1",
"v  c #EFDBA0",
"b  c #FBD2A5",
"n  c #FACFB2",
"m  c #F2CEB5",
"M  c #E0DCB7",
"N  c #DAE4AA",
"B  c #D2E5B8",
"V  c #E0E3A2",
"C  c #BF99DF",
"Z  c #BDBBCF",
"A  c #B3B5DE",
"S  c #9F80E1",
"D  c #A183E2",
"F  c #AD86E7",
"G  c #A788E1",
"H  c #AA8AE1",
"J  c #B089E7",
"K  c #BD8FE7",
"L  c #BE87EF",
"P  c #BF8AEF",
"I  c #B492E1",
"U  c #BB96E0",
"Y  c #BE99E0",
"T  c #B592E9",
"R  c #B79EEF",
"E  c #BD9EEB",
"W  c #BA97EA",
"Q  c #AAAEEE",
"!  c #BEA1EC",
"~  c #ADB3E9",
"^  c #B2B7ED",
"/  c #BAB5EC",
"(  c #B3BDEE",
")  c #BABEEE",
"_  c #B0B3E2",
"`  c #A7ADF1",
"'  c #A8AFF1",
"]  c #A7B1F1",
"[  c #A9B3F1",
"{  c #ABBBF1",
"}  c #B6B9F1",
"|  c #D484C4",
" . c #D588C2",
".. c #DD93C9",
"X. c #DE98C9",
"o. c #C889DF",
"O. c #D788D8",
"+. c #C29CDF",
"@. c #F093C1",
"#. c #F19EC7",
"$. c #E594DB",
"%. c #E893DB",
"&. c #E39ADD",
"*. c #EB9BDB",
"=. c #C2BDC7",
"-. c #CDA4DE",
";. c #D4A9DE",
":. c #DDAEDE",
">. c #DDB1DD",
",. c #E5A4CE",
"<. c #F2A3CA",
"1. c #F4AECF",
"2. c #EDA3DB",
"3. c #EFAADB",
"4. c #F0AFDB",
"5. c #EEB4D4",
"6. c #E3B5DD",
"7. c #E7B8DD",
"8. c #ECBCDC",
"9. c #F5B5D3",
"0. c #F4BAD6",
"q. c #F2B5DB",
"w. c #F4BCDA",
"e. c #C29CE0",
"r. c #C69CEE",
"t. c #CBACE5",
"y. c #C4AAEE",
"u. c #D8A7E2",
"i. c #C4B5EF",
"p. c #CAB4EF",
"a. c #C8B9EF",
"s. c #C0B9EB",
"d. c #D2B0E9",
"f. c #C9AEF0",
"g. c #CAB4F0",
"h. c #E6B7E2",
"j. c #B5C4EB",
"k. c #B4D5EF",
"l. c #ABC3F1",
"z. c #ADCBF1",
"x. c #AED1F1",
"c. c #AFDAF1",
"v. c #B2DDF1",
"b. c #BBE6E2",
"n. c #B5E6EC",
"m. c #B9E4EF",
"M. c #B2E7F1",
"N. c #B4E8F1",
"B. c #BAEAF3",
"V. c #F8C8CA",
"C. c #F8C7CD",
"Z. c #E7C5DF",
"A. c #ECC5DE",
"S. c #EDCADE",
"D. c #E4CFDC",
"F. c #F7C5D6",
"G. c #F8C7D0",
"H. c #F7C4DB",
"J. c #F4C6DB",
"K. c #CCE5C3",
"L. c #C2C2EB",
"P. c #CCC7E8",
"I. c #D4C4E5",
"U. c #DBC5E4",
"Y. c #D8CCE4",
"T. c #CFD5E7",
"R. c #CBDAE9",
"E. c #D6D5E6",
"W. c #DBD2E4",
"Q. c #D0D8E7",
"!. c #E3C5E1",
"~. c #E7C9E1",
"^. c #C0E0EC",
"/. c #C4ECF5",
"(. c #D6F2F7",
"). c #D7F3F8",
"_. c #EAF8FB",
"`. c #FFFFFF",
"'. c #FDFEFF",
"]. c #FAFEFE",
/* pixels */
"                  p.                                                                                                            ",
"                  p.p.                                                        p.g.                                              ",
"                  p.p.                                                        p.p.                                              ",
"                p.p.p.                                                        p.p.                                              ",
"            p.p.p.p.p.p.p.                                                  p.p.p.                                              ",
"          g.p.p.p.p.p.p.p.p.                                                p.p.g.                  D D                         ",
"              g.p.p.p.p.p.                                                p.p.p.g.                  D D                         ",
"                p.p.p.                                                    p.p.p.f.                                              ",
"                  p.g.                                                    y.T r e                                               ",
"                  p.                                                    r e e t T                                               ",
"                                                                      F t T y.p.p.                                      p.      ",
"                                                          M.M.M.      p.p.p.p.p.p.                                    p.p.      ",
"                                                      M.M.M.M.M.M.M.a.p.p.p.p.p.y.            2.2.                  g.p.p.p.p.  ",
"                                                    M.M.M.M.M.M.M.M.p.p.p.E F e e         H.%.%.%.*.              g.p.p.p.p.p.p.",
"                                        H.H.H.      M.M.M.M.M.M.M.v.E F e e e J W       H.H.2.%.%.%.                  p.p.g.    ",
"                                      H.H.H.H.H.    M.M.M.M.M.M.M.D e e J E i.( { l.z.P.A.H.4.%.%.%.2.                  p.      ",
"                                      H.H.H.H.H.H.W.M.M.M.M.M.M.M.! E p.p.) ] { v.M.M.M.v.Y.q.%.%.%.2.                  p.      ",
"D D D                               H.H.H.H.H.H.H.H.R.M.M.M.M.M.i.p.p.p.) ` { M.M.M.B./.M.M.I.%.%.%.2.                          ",
"D D D                               H.H.H.H.H.H.H.H.J.N.M.M.M.v.r.p.p.p.[ ` c.M.M.N.].`.(.M.k.&.%.%.2.                          ",
"  D D                               H.H.H.H.H.H.H.H.H.W.E.W.~.d.P y.! Q ` ` M.M.M.N.].`.`./.M./ %.%.2.                          ",
"                                    H.H.H.H.H.H.H.H.H.H.H.H.H.K y e e Q ` ] M.M.M.M./.`.`._.M.{ &.%.                            ",
"                                M.M.S.H.H.H.H.H.H.H.H.H.H.H.:.e e y u [ ` ` v.M.M.M.M.).`.(.M.x.^ *.                            ",
"                              M.M.M.E.H.H.H.H.H.H.H.H.H.H.H.H.u.P L L ^ ` ` l.M.M.M.M.M.M.M.M.M.l.(                             ",
"                              M.M.M.m.H.H.H.H.H.H.H.H.H.H.H.H.H.h.r.P R ` ` ` x.M.M.M.M.M.M.M.M.M.{ {                           ",
"                            M.M.M.M.M.Q.H.H.H.H.H.H.H.H.H.H.H.H.H.H.J.h.{ ` ` ` l.M.M.M.M.M.M.M.M.{ ` {                         ",
"                            M.M.M.M.M.^.H.H.H.H.H.H.H.H.H.H.H.H.H.H.H.H.~.] ` ` ` ` { { { { { [ ' ` ` [                         ",
"                            M.M.M.M.M.T.H.H.H.H.H.H.H.H.H.H.H.H.H.H.H.H.H.!.[ ` ` ` ` ` ` ` ` ` ` ` {                           ",
"                            M.M.M.M.M.R.H.H.H.H.H.H.H.H.H.H.H.H.H.H.H.H.H.H.H.L.[ ` ` ` ` ' { / t.$.2.                          ",
"                          M.M.M.M.M.M.n.S.H.H.H.H.H.H.H.H.H.H.H.H.H.H.H.H.H.H.H.H.!.U.I.U.J.H.2.%.%.%.          0 0             ",
"                    M.M.M.M.M.M.M.M.M.B M H.H.H.H.H.H.H.H.H.H.H.H.H.H.H.H.H.H.H.H.H.H.H.H.H.H.q.%.%.%.2.  0 9 8 8 8 0           ",
"                M.M.M.M.M.M.M.M.M.M.n.@ @ D.H.H.H.H.H.H.H.H.H.H.H.H.H.H.H.H.H.H.H.H.H.H.H.H.H.H.$.o.e 9 8 8 8 8 8 8 0           ",
"              M.M.M.M.M.M.M.M.M.M.n.k O O V J.H.H.H.H.J.Y U Y e.-.-.;.;.:.6.6.8.w.H.H.H.H.7.-.I D D D w q < - $ : 8 0           ",
"            M.M.M.M.M.M.M.M.M.M.K.# O O O O @ n H.H.H.>.D D D D D D D D D D D D D D D G G D D D D 7 3 : $ $ $ $ 1 8 0           ",
"          M.M.M.M.M.M.M.M.M.M.n.N + O O O O + v F.H.H.6.D D D 4 4 5 7 7 D D D D D D D D D D D w % $ $ $ $ $ $ $ 2 8             ",
"          M.M.M.M.M.M.M.M.M.M.M.M.b.j O O j b.N.J.H.H.J.G D 7 $ $ $ $ $ $ $ % ; 7 D D -.J.>.D D : $ $ $ $ $ $ 1 8 9             ",
"        M.M.M.M.M.M.M.M.M.M.M.M.M.M.b.+ + b.M.M.T.H.H.H.C D D > $ $ $ $ $ $ $ % 7 D G H.H.H.+.D D 3 $ $ $ % < 8 8 q             ",
"        M.M.M.M.M.M.M.M.M.M.M.M.M.M.M.N N M.M.M.z.Z.H.H.8.G D S > $ $ $ $ $ % 7 D D ;.H.H.H.H.U D D D 6 7 0 8 8 0               ",
"      M.M.M.M.M.M.M.M.M.M.M.M.M.M.M.M.n.n.M.M.M.{ ) H.H.H.6.G D D 6 3 , 3 5 D D D +.H.H.H.H.H.H.;.G D D q 8 9                   ",
"      c.M.M.M.M.M.M.M.M.M.M.M.M.M.M.M.M.M.M.M.M.] ` A.H.H.H.7.I D D D D D D D G -.H.H.H.H.H.H.H.H.H.6.o.u o.*.                  ",
"      x.M.M.M.M.M.M.M.M.M.M.M.M.M.M.M.M.M.M.M.x.` ` L.C.H.H.H.H.>.e.H G G I -.8.H.H.H.H.H.H.H.H.H.H.H.3.%.%.%.                  ",
"      z.M.M.M.M.M.M.M.M.M.M.M.M.M.M.M.M.M.M.M.[ ` ` ^ X V.H.H.H.H.H.H.H.H.H.H.H.H.H.H.H.H.H.H.H.H.H.H.q.%.%.%.2.                ",
"      { M.M.M.M.M.M.M.M.M.M.M.M.M.M.M.M.M.M.l.` ` ` z O g H.H.H.H.H.H.H.H.H.H.H.H.H.H.H.H.H.H.H.H.H.H.w.%.%.%.%.                ",
"      ] c.M.M.M.M.M.M.M.M.M.M.M.M.M.M.M.M.x.` ` Q x + O O b F.H.H.H.H.H.H.H.H.H.H.H.H.0.<.w.H.1.<.H.H.w.%.%.%.%.                ",
"      { { M.M.M.M.M.M.M.M.M.M.M.M.M.M.M.x.` ` Z o O O O O O X n H.H.H.H.H.H.H.H.H.H.H.d a @.9.a a <.H.q.%.%.%.%.                ",
"      l.` z.M.M.M.M.M.M.M.M.M.M.M.M.M.l.` ` ` ~ c . O O O O h G.H.H.H.H.H.H.H.H.H.H.9.a a a a a a @.H.3.%.%.%.%.                ",
"        ` ` j.n.M.M.M.M.M.M.M.M.M.z.] ` ` ` ` ` ` _ o O + V.H.H.H.H.H.H.H.H.H.H.H.H.H.s a a a a a <.H.*.%.%.%.%.                ",
"        { ` l c l.x.v.v.v.c.z.{ ` ` ` ` ` ` ` ` ` ] m O b H.H.H.H.H.H.H.H.H.H.H.H.H.H.<.a a a a s 0.q.%.%.%.%.2.                ",
"          A + . ~ ` ` ` ` ` ` ` ` ` ` ` ` ` ` ` { Z.H.g F.H.H.H.H.H.H.H.H.H.H.H.H.H.H.H.#.a a @.9.H.*.%.%.%.%.                  ",
"          o O O f A ` ` ` ` ` ` ` ` ` ` ` ` ' j.J.H.H.H.H.H.H.H.H.H.H.H.H.H.H.H.H.H.H.H.H.H.w.H.H.2.%.%.%.%.*.                  ",
"      O O O O O O + l Q ` ` ` ` ` ` ` ` ` ( !.H.H.H.H.H.H.H.H.H.H.H.H.H.H.H.H.H.H.H.H.H.H.H.H.H.2.%.%.%.%.%.                    ",
"        O O O O O o =.` ` ` ` ` ` ` ` ` { H.H.H.H.H.H.H.H.H.H.5.X.p * * p X.w.H.H.H.H.H.H.H.w.*.%.%.%.%.%.                      ",
"          O O O z ' ` ` ` ` ` ` ` ` ` ` ` P.H.H.H.H.H.H.H.H.0.& & =  . .= & * ,.H.H.H.H.w.2.%.%.%.%.%.*.                        ",
"            + o Q ` ` ` ` ` ` ` ` ` ` ` ` { H.H.H.H.H.H.H.H.H.,.5.H.H.H.H.5.= & ..3.2.*.%.%.%.%.%.%.2.                          ",
"            x =.` ` ` ` ` ` ` ` ` ` ` ` ` ' !.H.H.H.H.H.H.H.H.H.H.H.H.H.H.H.3.i & O.%.%.%.%.%.*.2.                              ",
"            Q ` ` ` ` ` ` ` ` ` ` ` ` ` ` ` L.H.H.H.H.H.H.H.H.H.H.H.H.H.H.H.H.$.* | 2.2.2.                                      ",
"            ` ` ` ` ` ` ` ` ` ` ` ` ` ` ` ` ( H.H.H.H.H.H.H.H.H.H.H.H.H.H.H.H.*.$.*.                                            ",
"            ` ` ` ` ` ` ` ` ` ` ` ` ` ` ` ` ^ H.H.H.H.H.H.H.H.H.H.H.H.H.H.H.H.2.%.%.                                            ",
"            ` ` ` ` ` ` ` ` ` ` ` ` ` ` ` ` ( H.H.H.H.H.H.H.H.H.H.H.H.H.H.H.H.2.%.%.                                            ",
"            { ` ` ` ` ` ` ` ` ` ` ` ` ` ` ` L.H.H.H.H.H.H.H.H.H.H.H.H.H.H.H.H.%.%.%.2.                                          ",
"            z.` ` ` ` ` ` ` ` ` ` ` ` ` ` ` Z.H.H.H.H.H.H.H.H.H.H.H.H.H.H.H.3.%.%.%.*.                                          ",
"              l.` ` ` ` ` ` ` ` ` ` ` ` ` L.H.H.H.H.H.H.H.H.H.H.H.H.H.H.H.3.%.%.%.%.%.                                          ",
"                { ` ` ` ` ` ` ` ` ` ` ` s.3.3.3.3.3.3.3.3.3.3.3.3.3.3.2.%.%.%.%.%.%.%.                                          ",
"                  l.` ` ` ` ` ` ` ` ^ u.%.%.%.%.%.%.%.%.%.%.%.%.%.%.%.%.%.%.%.%.%.%.%.                                          ",
"                    z.' ] [ ^ / t.&.%.%.%.%.%.%.%.%.%.*.*.*.*.*.*.*.*.*.*.*.*.*.*.*.*.2.                                        "
};
