/* XPM */
static char *_3ef6fdec18c47a0d82b0cb6a3333d782DN5HKohqi54m3rm[] = {
/* columns rows colors chars-per-pixel */
"64 64 147 2 ",
"   c None",
".  c #000000",
"X  c #090506",
"o  c #0C0708",
"O  c #0C0B0B",
"+  c #130C0D",
"@  c #180F10",
"#  c #151515",
"$  c #1D1213",
"%  c #1B1B1C",
"&  c #210E10",
"*  c #231617",
"=  c #2E1316",
"-  c #241718",
";  c #27181A",
":  c #2C1B1D",
">  c #321619",
",  c #2F1D20",
"<  c #321F22",
"1  c #242425",
"2  c #272728",
"3  c #2B2B2B",
"4  c #342123",
"5  c #392427",
"6  c #3D2729",
"7  c #3F282A",
"8  c #343434",
"9  c #3B3B3C",
"0  c #41272A",
"q  c #432A2D",
"w  c #4A282C",
"e  c #532429",
"r  c #492E31",
"t  c #4E3134",
"y  c #56363A",
"u  c #5C3A3E",
"i  c #523337",
"p  c #612A30",
"a  c #713138",
"s  c #3E3E40",
"d  c #623E42",
"f  c #444444",
"g  c #474648",
"h  c #4D4C4D",
"j  c #504F52",
"k  c #545455",
"l  c #57575A",
"z  c #5C5B5C",
"x  c #694246",
"c  c #6E454A",
"v  c #74494E",
"b  c #774B50",
"n  c #7A4D52",
"m  c #5F5E62",
"M  c #636364",
"N  c #6D6D6D",
"B  c #737274",
"V  c #767579",
"C  c #79777B",
"Z  c #7D7D7D",
"A  c #8A3B44",
"S  c #843942",
"D  c #815157",
"F  c #87555B",
"G  c #88555B",
"H  c #8D585F",
"J  c #A44752",
"K  c #B34D59",
"L  c #8F5A60",
"P  c #925C62",
"I  c #9B5C64",
"U  c #9A6067",
"Y  c #9E636A",
"T  c #A3666D",
"R  c #A76970",
"E  c #AB6C73",
"W  c #B16F77",
"Q  c #B27077",
"!  c #B5727A",
"~  c #BB767E",
"^  c #D65C6A",
"/  c #D95E6C",
"(  c #DE606F",
")  c #D06773",
"_  c #CE757F",
"`  c #EB6575",
"'  c #F56A7A",
"]  c #FF6E7F",
"[  c #7E7C81",
"{  c #817F84",
"}  c #C47B83",
"|  c #C87D86",
" . c #CB7F88",
".. c #FF6F80",
"X. c #FF7484",
"o. c #FF7C8C",
"O. c #828282",
"+. c #88878B",
"@. c #8C8C8C",
"#. c #959595",
"$. c #97969B",
"%. c #9D9D9D",
"&. c #9C9BA0",
"*. c #A09EA3",
"=. c #A5A5A5",
"-. c #A8A6AC",
";. c #AEAEAE",
":. c #B1AFB5",
">. c #B4B4B4",
",. c #B5B4BA",
"<. c #BAB8BE",
"1. c #CC8089",
"2. c #D2848D",
"3. c #D68690",
"4. c #DC8A94",
"5. c #FF818F",
"6. c #E08D96",
"7. c #E38E98",
"8. c #FF8796",
"9. c #FF8896",
"0. c #E6909A",
"q. c #EA939D",
"w. c #EE95A0",
"e. c #F097A1",
"r. c #F599A4",
"t. c #FE9AA5",
"y. c #FD9EA9",
"u. c #FFA0AB",
"i. c #BEBCC3",
"p. c #C3C3C4",
"a. c #C7C5CC",
"s. c #C8C6CD",
"d. c #CCCBCC",
"f. c #CECCD2",
"g. c #D3D2D4",
"h. c #D6D4D9",
"j. c #D8D7DA",
"k. c #DADADB",
"l. c #DFDEE0",
"z. c #E0DFE1",
"x. c #E2E1E3",
"c. c #E6E6E6",
"v. c #E2E2E3",
"b. c #E7E7E8",
"n. c #E9E9E9",
"m. c #EAEAEA",
"M. c #EAEAEA",
/* pixels */
"                                                                                                                                ",
"                                                . . . . . . . . . . . . . . . .                                                 ",
"                                          . . . . # 9 k N N N N N N N N z f # . . . .                                           ",
"                                        . . X l &.j.n.n.n.n.n.n.n.n.n.n.n.n.n.>.M o . .                                         ",
"                                      . . h :.f.n.n.n.n.n.n.n.n.n.n.n.n.n.n.n.n.n.g.k . .                                       ",
"                                    . X [ a.h.n.n.n.n.n.n.n.n.n.n.n.n.n.n.n.n.n.n.n.n.#.X .                                     ",
"                                  . X $.a.g.n.n.n.n.n.n.n.n.n.n.n.n.n.n.n.n.n.n.n.n.n.n.>.X .                                   ",
"                                . . { a.f.n.n.n.n.n.n.n.n.n.n.n.n.n.n.n.n.n.n.n.n.n.n.n.n.#.. .                                 ",
"                              . . k s.s.x.n.n.n.n.n.n.n.n.n.n.n.n.n.n.n.n.n.n.n.n.n.n.n.n.n.M . .                               ",
"                              . o ,.a.g.n.n.n.>.Z n.n.n.n.n.n.n.n.n.n.n.n.n.n.Z >.n.n.n.n.n.h.O .                               ",
"                            . . M a.s.x.n.n.n.f . d.n.n.n.h.d.n.n.d.h.n.n.n.d.. f n.n.n.n.n.n.B . .                             ",
"                            . . -.a.d.n.n.n.n.f . d.n.n.n.8 X M M X 8 n.n.n.d.. f n.n.n.n.n.n.p.. .                             ",
"                            . 1 a.a.h.n.n.n.n.>.B n.n.n.n.$.o . . o %.n.n.n.n.B >.n.n.n.n.n.n.n.1 .                             ",
"                            . h a.a.k.n.n.n.n.n.n.n.n.n.n.n.h.#.#.h.n.n.n.n.n.n.n.n.n.n.n.n.n.n.k .                             ",
"                            . m a.a.l.n.n.n.n.n.n.n.n.n.n.n.n.n.n.n.n.n.n.n.n.n.n.n.n.n.n.n.n.n.N .                             ",
"                            . B a.a.x.n.n.n.n.n.n.n.n.n.n.n.n.n.n.n.n.n.n.n.n.n.n.n.n.n.n.n.n.n.O..                             ",
"                            . m a.a.l.n.n.n.n.n.n.n.n.n.n.n.n.n.n.n.n.n.n.n.n.n.n.n.n.n.n.n.n.n.N .                             ",
"                            . # <.a.g.n.n.n.n.x.n.n.n.n.n.n.n.c.c.n.n.n.n.n.n.n.x.n.n.n.n.n.n.j.# .                             ",
"                            . . 1 $.a.h.#.9 X . % N p.n.g.O.2 X X 2 O.g.n.p.N % . o 9 #.k.c.>.2 . .                             ",
"                              . . . . . . . . . . . . . . . . & & . . . . . . . . . . . . . . . .                               ",
"                                  . . . .       . . = & = a ^ ] ] ^ a = & = . .       . . . .         . . . . .                 ",
"                                                . . ' ] ] ] ] ] ] ] ] ] ] ' . .                   . . . 8 g 1 . .               ",
"                                                . & ] ] ] ] ] o.o.] ] ] ] ] & .                   . % -.a.k.n.%.X .             ",
"                                                . w 5.o.5.9.t.u.u.t.9.5.o.5.w .                 . X -.a.f.n.n.n.%.X . . . .     ",
"                                                . v u.u.u.u.u.u.u.u.u.u.u.u.v .             . . . M s.g.c.n.n.n.n.p.N g O . .   ",
"                                                . ; q y E u.u.u.u.u.u.u.u.u.Y . .         . . 2 V h.b.n.n.n.n.n.n.n.n.n.h.8 .   ",
"                                              . . . . . . P u.u.u.u.u.u.u.u.| . .       . O &.a.g.n.n.n.n.n.n.n.n.n.n.n.n.p.. . ",
"                                              . . p.d.=.. $ u.u.u.u.u.u.u.u.e.. .       . M a.a.x.n.n.n.n.n.n.n.n.n.n.n.n.n.# . ",
"                                              . % n.n.p.X @ u.u.u.u.u.u.u.u.u.$ .       . B a.a.x.n.n.n.n.n.n.n.n.n.n.n.n.j.. . ",
"                . . . . . .                   . . . . . . n u.u.u.u.u.u.u.u.u.q .       . 3 a.a.j.n.n.n.n.n.n.n.n.n.n.n.c.k . . ",
"            . . . 9 m k O . .                 . + * * 4 G y.u.u.u.u.u.u.u.u.u.c .       . . 2 N C +.@.@.@.@.@.@.@.@.@.Z 8 . .   ",
"          . . O &.a.h.n.j.8 . .               . P u.u.u.u.u.u.u.u.u.u.u.u.u.u.I .         . . . . . . . . . . . . . . . . .     ",
"    . . . . O *.h.l.n.n.n.g.O .             . . ~ u.u.u.u.u.u.y.E n b n Q y.u.} . .             . . . * F G t . .               ",
"  . . % z +.g.n.n.n.n.n.n.n.@.. . .         . . 0.u.u.u.u.u.u.u . . . . . d u.q.. .             . . r w.u.e.$ .                 ",
". . s p.a.z.n.n.n.n.n.n.n.n.n.=.h X . .     . o u.u.u.u.u.u.1.. % #.%.#.% . 2.u.+ .         . . . n y.u.u.d . .                 ",
". . ,.a.d.n.n.n.n.n.n.n.n.n.n.n.n.d.# .     . 4 u.u.u.u.u.u.! . k n.n.n.h . ~ u.7 .       . . + W u.u.u.! . .                   ",
". O a.a.g.n.n.n.n.n.n.n.n.n.n.n.n.n.N .     . u u.u.u.u.u.u.q.+ . 1 3 1 . + e.u.x .   . . . r 0.u.u.u.6.+ .                     ",
". . :.a.f.n.n.n.n.n.n.n.n.n.n.n.n.n.B .     . F u.u.u.u.u.u.u.} : . . . : | u.u.P . . . + I y.u.u.u.r.< . .                     ",
". . 9 i.a.x.n.n.n.n.n.n.n.n.n.n.n.k.% .   . . E u.u.u.u.u.u.u.u.u.r.w.r.u.u.u.u.~ . . p ` 8.u.u.u.y.t . .                       ",
"  . . % j m N N N N N N N N N N M % . .   . . 3.u.u.u.u.u.u.u.u.u.u.u.u.u.u.u.u.0.. > ] ] o.u.u.y.u . .                         ",
"    . . . . . . . . . . . . . . . . .     . X y.u.u.u.u.u.u.u.u.u.u.u.u.u.u.u.u.u.+ X ] ] X.u.u. .. .                           ",
"              . . n E R ; . .             . ; u.u.u.u.u.u.u.u.u.u.u.u.u.u.u.u.u.u.5 . ( ] X.y.u.r.                              ",
"                . 7 u.u.q.: . .           . t u.u.u.y.2.1.1.1.0.u.u.u.u.u.u.u.u.u.d . K ] ^ 0 r                                 ",
"                . . E u.u.w.5 . .         . b u.u.} @ . . . . . y y.u.u.u.u.u.u.u.H . A A X . .                                 ",
"                  . q u.u.u.r.u . .     . . Y u.y.$ . 9 h h h % . L u.u.u.u.u.u.u.! . X . .                                     ",
"                    U u.u.u.u.u.P X . . . . | u.6.. 3 n.n.n.n.;.. y u.u.u.u.u.u.u.6.. . .                                       ",
"                      q.0.u.u.u.u.) > . . . w.u.y.o X M Z Z Z 8 . D u.u.u.u.u.u.u.y.o .                                         ",
"                      X o 1.u.u.u.X.] S . @ u.u.u.E X . . . . . 4 r.u.u.u.u.u.u.u.u.4 .                                         ",
"                        . @ 6.u.y...] / . 0 u.u.u.u.7.R U U U ~ y.u.u.u.u.u.u.u.u.u.u .                                         ",
"                        . . $ 4.t.] ] K . x u.u.u.u.u.u.u.u.u.u.u.u.u.u.u.u.u.u.u.u.F .                                         ",
"                          . . $ _ ] ] A . P u.u.u.u.u.u.u.u.u.u.u.u.u.u.u.u.u.u.u.u.W . .                                       ",
"                            . . X J ] p . ! u.u.u.u.u.u.u.u.u.u.u.u.u.u.u.u.u.T q 4 ; . .                                       ",
"                                . . e = . 6.u.u.u.u.u.u.u.u.u.u.u.u.u.u.u.u.Y . . . . . .                                       ",
"                                  . . . X y.u.u.u.u.u.u.u.u.u.u.u.u.u.u.u.u.6 . =.j.j.2 .                                       ",
"                                    . . < u.u.u.u.u.u.u.u.u.u.u.u.u.u.u.u.u.7 . #.d.d.f .                                       ",
"                                      . u u.u.u.u.u.u.u.u.u.u.u.u.u.u.u.u.u.E . . . . . .                                       ",
"                                      . D u.u.u.u.u.u.u.u.u.u.u.u.u.u.u.u.u.u.Q i 4 4 - .                                       ",
"                                    . . E u.u.u.u.u.u.u.u.u.u.u.u.u.u.u.u.u.u.u.u.u.u.| . .                                     ",
"                                    . . 2.u.u.u.u.u.u.u.u.u.u.u.u.u.u.u.u.u.u.u.u.u.u.q.. .                                     ",
"                                    . . r.u.u.u.u.u.u.u.u.u.u.u.u.u.u.u.u.u.u.u.u.u.u.u.o .                                     ",
"                                    . * u.u.u.u.u.u.u.u.u.u.u.u.u.u.u.u.u.u.u.u.u.u.u.u., .                                     ",
"                                    . * G G G G G G G G G G G G G G G G G G G G G G G G ; .                                     ",
"                                    . . . . . . . . . . . . . . . . . . . . . . . . . . . .                                     ",
"                                                                                                                                "
};
