/* XPM */
static char *_7f9ec6fea1e422cef01f90e9914fcc0ADeUzqrb2QZ6gWla[] = {
/* columns rows colors chars-per-pixel */
"64 64 193 2 ",
"   c None",
".  c black",
"X  c #000100",
"o  c #010201",
"O  c #010202",
"+  c #020202",
"@  c #020302",
"#  c gray1",
"$  c #020403",
"%  c #030503",
"&  c #030504",
"*  c #040404",
"=  c #040705",
"-  c #040806",
";  c #050906",
":  c #060A07",
">  c #060B08",
",  c #070C08",
"<  c #070D09",
"1  c #080E0A",
"2  c #080F0A",
"3  c #080F0B",
"4  c #090F0B",
"5  c #0C0D0D",
"6  c #0D0E0E",
"7  c #09100B",
"8  c #0A120C",
"9  c #0B140E",
"0  c #0C160F",
"q  c #0F1011",
"w  c #0C1710",
"e  c #0E1B13",
"r  c #0F1B13",
"t  c #0F1C14",
"y  c #101011",
"u  c #101112",
"i  c #111112",
"p  c #111213",
"a  c #121213",
"s  c #141516",
"d  c #111F15",
"f  c #161718",
"g  c #171819",
"h  c #18191A",
"j  c #191A1B",
"k  c #112016",
"l  c #122117",
"z  c #122218",
"x  c #132419",
"c  c #142419",
"v  c #14251A",
"b  c #16291D",
"n  c #172A1D",
"m  c #182C1E",
"M  c #1F2122",
"N  c #1C3324",
"B  c #1D3525",
"V  c #232526",
"C  c #27292A",
"Z  c #282A2B",
"A  c #292B2C",
"S  c #292C2D",
"D  c #203B29",
"F  c #213D2A",
"G  c #223F2C",
"H  c #2D2F31",
"J  c #383B3D",
"K  c #23402D",
"L  c #23412D",
"P  c #25442F",
"I  c #254530",
"U  c #264531",
"Y  c #284933",
"T  c #284A33",
"R  c #284A34",
"E  c #2A4D36",
"W  c #2A4E36",
"Q  c #2B4F37",
"!  c #2C5239",
"~  c #2D523A",
"^  c #2F563C",
"/  c #3D4042",
"(  c #3E4143",
")  c #335F42",
"_  c #345F43",
"`  c #346043",
"'  c #356144",
"]  c #366345",
"[  c #386748",
"{  c #3A6A4A",
"}  c #3F7451",
"|  c #424648",
" . c #434749",
".. c #44484A",
"X. c #494D4F",
"o. c #4A4D50",
"O. c #4C5053",
"+. c #4E5255",
"@. c #407552",
"#. c #407652",
"$. c #417753",
"%. c #417854",
"&. c #427955",
"*. c #437B56",
"=. c #437C56",
"-. c #447C57",
";. c #5A5F62",
":. c #676C70",
">. c #686D71",
",. c #6A6F73",
"<. c #6B7074",
"1. c #6E7377",
"2. c #71777B",
"3. c #747A7E",
"4. c #46805A",
"5. c #47835B",
"6. c #48845C",
"7. c #4A885F",
"8. c #4B8960",
"9. c #4B8A61",
"0. c #4C8C62",
"q. c #4E9065",
"w. c #519568",
"e. c #53996B",
"r. c #549B6C",
"t. c #559D6E",
"y. c #569E6E",
"u. c #579F6F",
"i. c #57A170",
"p. c #58A271",
"a. c #5AA674",
"s. c #5BA875",
"d. c #5CAA77",
"f. c #5DAA77",
"g. c #5FAE7A",
"h. c #5FAF7B",
"j. c #60B07B",
"k. c #60B17C",
"l. c #62B37D",
"z. c #62B57E",
"x. c #AC876C",
"c. c #777D80",
"v. c #7A8083",
"b. c #7B8285",
"n. c #63B780",
"m. c #64B780",
"M. c #64B881",
"N. c #65B981",
"B. c #66BB83",
"V. c #67BD84",
"C. c #67BE85",
"Z. c #6AC389",
"A. c #6BC489",
"S. c #6BC58A",
"D. c #6CC78B",
"F. c #6CC88B",
"G. c #6DC88C",
"H. c #6DC98D",
"J. c #6ECA8D",
"K. c #6ECB8E",
"L. c #6FCC8E",
"P. c #70CE90",
"I. c #878E92",
"U. c #888F93",
"Y. c #899094",
"T. c #8A9195",
"R. c #8B9296",
"E. c #8C9397",
"W. c #8D9498",
"Q. c #90979B",
"!. c #AFB8BD",
"~. c #B3BCC1",
"^. c #B4BDC2",
"/. c #B6BFC4",
"(. c #C0C9CF",
"). c #C2CBD1",
"_. c #C4CED4",
"`. c #C7D1D7",
"'. c #CAD4DA",
"]. c #CBD5DB",
"[. c #CDD7DD",
"{. c #CFDAE0",
"}. c #D0DBE1",
"|. c #D1DCE2",
" X c #D3DEE4",
".X c #D5E0E6",
"XX c #D6E1E7",
"oX c #D7E2E8",
"OX c #D8E3E9",
"+X c #D9E5EB",
"@X c #E5F0F7",
"#X c #E5F1F8",
"$X c #EBF7FE",
/* pixels */
"                                                                                                                                ",
"                                . .                                                                                             ",
"                                . .                                                                                             ",
"                                . . .                                                                                           ",
"                              . . . .                                                                         . . . .           ",
"                              . 9 9 .                   . . . .                                               . . . .           ",
"                              . ^ ^ . .               . . . . . .                                               . .             ",
"                            . . e.e.. .               . . /.^.. .                                       . .     . .     . .     ",
"                            . 7 H.L.8 .               . . ^.~.. .                                       . . . . . . . . . .     ",
"                            . ! P.P.! . .             . . . . . .                                       . . . . . . . . . .     ",
"                          . . w.P.P.w.. .               . . . .                                         . .     . .     . .     ",
"                          . < H.P.P.H.2 .                                                                       . .             ",
"                          . E P.P.P.P.E . .                                                                   . . . .           ",
"                        . . q.P.B.$.P.q.. .                                                                   . . . .           ",
"                        . : F.B.z . &.H.> .                                               . . . .                               ",
"                        . Y P.&.. c V.P.Y .                                             . . . . . .                             ",
"                      . . 0.P.P.&.V.P.P.0.. .                                           . . /.^.. .                             ",
"                      . : A.P.P.P.P.P.P.D.: .                                           . . ^.~.. .                             ",
"                      . P P.P.P.P.P.P.P.P.I .                     . . . .               . . . . . .                             ",
"                    . . -.] e . 9 E l.P.P.7.. .                   . . . .                 . . . .                               ",
"                    . . t . . . . . 2 s.P.A.= .                     . .                                                         ",
"                    . . . V !.#X'.X.. x H.P.K .             . .     . .     . .                                                 ",
"                  . . . M  X$X$X$X@XA . K j.6.. .           . . . . . . . . . .                                                 ",
"                  . . g '.$X$X$X$X$X(.p . . . . .           . . . . . . . . . .                                                 ",
"                  . p ).$X$X$X$X$X$X$X[.;.j . . .           . .     . .     . .                                                 ",
"                . . W.$X$X$X$X$X$X$X$X$X$X$X$XQ.. .                 . .                     . .                                 ",
"                . . OX$X$X$XT.OX$X$X$X$X$X$X$X+X= .               . . . .                   . .                                 ",
"                . ( $X$X$XT.. S OX$X$X$X$X$X$X$X( .               . . . .                 . . . .                               ",
"              . . T.$X$X$XoXZ . U.$X$X$X$X$X$X$XT.. .                                     . : : .                               ",
"          . . . . {.$X$X$X$X.XI.$X$X$X$X$X$X$X$X.X. .                                   . . ! ! . .                             ",
"        . . . . . 2.$X$X$X$X$X$X$X$X$XoXI.$X$X$X$XJ .                                   . . f.f.. .                             ",
"        . . y.y.. j $X$X$X$X$X$X$X$XoXZ . I.$X$X#X... . .                               . N P.P.N .                             ",
"        . . y.y.. f $X$X$X$X$X$X$X$XT.. A OX$X$X>.. . . . .                           . . 9.P.P.9.. .                           ",
"        . . . . . <.$X$X$XoXU.$X$X$X$XE.OX$X$X$Xp . y.y.. .                           . w H.B.} H.0 .                           ",
"          . . p <.#X$X$XoXZ . U.$X$X$X$X$X$X$X$Xj . y.y.. .                         . . { B.z . $.{ . .                         ",
"          . . '.$X$X$X$XT.. A oX$X$X$X$X$X$X$X$X1.. . . . .                         . & B.=.. c V.B.$ .                         ",
"          . H $X$X$X$X$X$XT.oX$X$X$X}.O.5 5 o.`.#X1.j . .                         . . R P.P.-.V.P.P.Y . .                       ",
"        . . b.$X$X$X$X$X$X$X$X$X$X}.p . . . . q }.$X$Xv.. .                       . . p.P.P.P.P.P.P.i.. .                       ",
"        . . . . . . j 1.#X$X$X$X$XO.. F B.m.D . +.$X$X`.. .                       . n P.P.P.P.P.P.P.P.n .                       ",
"        . . . . . . . . 1.$X$X$X$X5 . m.P.P.n.. 5 $X$X$XS .                     . . $.] e . 9 E l.P.P.5.. .                     ",
"      . . [ P.P.P.P.y.. j $X$X$X$X. . P.P.P.P.. . $X$X$Xc.. .                   . . d . . . . . 2 s.P.F.7 .                     ",
"      . . f.P.P.P.P.P.: . |.$X$X}.. < P.P.P.P.. . $X$X$X_.. .                 . . . . k r.H.l.K . x H.P.` . .                   ",
"      . k P.P.P.P.P.P.K .  .|.}. .. I P.P.P.P.. . $X$X$X$XC .                 . . . c V.P.P.P.H.x . G g.z.. .                   ",
"    . . ] P.P.P.P.P.P.g.2 . . . . 2 m.P.P.P.P.. . $X$X$X$X3.. .               . . c V.P.P.P.P.P.s.2 . . . . .                   ",
"    . . a.P.P.P.P.P.P.P.n.I > > I m.P.P.P.P.P.. . $X$X@X:.p . .             . . c V.P.P.P.P.P.P.P.l.E 0 . . . .                 ",
"    . e P.P.P.P.P.P.P.P.P.P.P.P.P.P.P.P.P.P.P.. . $X$X>.. . . .             . t V.P.P.P.P.P.P.P.P.P.P.P.P.P.m .                 ",
"  . . ) P.P.P.P.P.P.P.P.P.P.P.P.P.P.P.P.P.P.P.. . $X$Xs . y._ . .         . . &.P.P.P.P.$.B.P.P.P.P.P.P.P.P.5.. .               ",
"  . . . . . . . . . . . . . . . . . . . . . . . . $X$X. . . . . .         . > Z.P.P.P.&.. z B.P.P.P.P.P.P.P.H.8 .               ",
"  . . . . . . . . . . . . . . . . . . . . . . . . $X$X. . . . . .       . . ^ P.P.P.P.V.c . &.P.P.P.P.P.P.P.P.] . .             ",
"                          . . x.x.x.x.. .     . . $X$X. .               . . f.P.P.P.P.P.V.&.P.P.P.P.P.P.P.P.P.B.$ .             ",
"                          . . x.x.x.x.. .     . . $X$X. .               . B P.P.P.P.P.P.P.P.P.P.P.P.P.P.P.P.P.P.P .             ",
"                          . . x.x.x.x.. .     . . ^.~.. .             . . . . . . . . . . . . . . . . . . . . . . . .           ",
"                          . . x.x.x.x.. .     . . . . . .             . . . . . . . . . . . . . . . . . . . . . . . .           ",
"                          . . x.x.x.x.. .       . . . .                                 . . x.x.. .                             ",
"                          . . x.x.x.x.. .                                               . . x.x.. .                             ",
"                          . . x.x.x.x.. .                                               . . x.x.. .                             ",
"                          . . x.x.x.x.. .                                               . . x.x.. .                             ",
"                          . . x.x.x.x.. .                                               . . x.x.. .                             ",
"                          . . x.x.x.x.. .                                               . . x.x.. .                             ",
"                          . . x.x.x.x.. .                                               . . x.x.. .                             ",
"                          . . x.x.x.x.. .                                               . . x.x.. .                             ",
"  . . . . . . . . . . . . . . . . . . . . . . . . . . . . . . . . . . . . . . . . . . . . . . . . . . . . . . . . . . . . . .   ",
"  . . . . . . . . . . . . . . . . . . . . . . . . . . . . . . . . . . . . . . . . . . . . . . . . . . . . . . . . . . . . . .   ",
"                                                                                                                                "
};
