/* XPM */
static char *_0ebdee5e67b49988b2905e2eeffabc5IscoPSs00zT8veQr[] = {
/* columns rows colors chars-per-pixel */
"64 64 147 2 ",
"   c None",
".  c #571165",
"X  c #581166",
"o  c #631664",
"O  c #681764",
"+  c #671865",
"@  c #6B1964",
"#  c #621C68",
"$  c #741D63",
"%  c #7A1F63",
"&  c #662369",
"*  c #69256A",
"=  c #7B2062",
"-  c #712F6C",
";  c #77376D",
":  c #7B3B6E",
">  c #7F406F",
",  c #932B5F",
"<  c #9B2E5F",
"1  c #9E305F",
"2  c #A2315E",
"3  c #AB355E",
"4  c #B1375D",
"5  c #B5395D",
"6  c #BB3B5C",
"7  c #832362",
"8  c #8B2760",
"9  c #8E2860",
"0  c #942A60",
"q  c #952C60",
"w  c #972C60",
"e  c #912960",
"r  c #982C60",
"t  c #9A2D60",
"y  c #C13D5B",
"u  c #C23E5B",
"i  c #C33E5B",
"p  c #C43F5B",
"a  c #C13E5C",
"s  c #C03E5C",
"d  c #C53F5C",
"f  c #854671",
"g  c #8A4E72",
"h  c #8D5173",
"j  c #915673",
"k  c #935874",
"l  c #9F6677",
"z  c #A56D78",
"x  c #A77079",
"c  c #AC767A",
"v  c #B27E7C",
"b  c #C7415B",
"n  c #C7405B",
"m  c #C6405B",
"M  c #C8415A",
"N  c #CA415A",
"B  c #CA425B",
"V  c #CD425A",
"C  c #CF435A",
"Z  c #CF445A",
"A  c #CF445B",
"S  c #CE435A",
"D  c #D24659",
"F  c #D34658",
"G  c #D2455A",
"H  c #D3465A",
"J  c #D44559",
"K  c #D54759",
"L  c #D64659",
"P  c #D74759",
"I  c #D84759",
"U  c #D84859",
"Y  c #DA4859",
"T  c #DC4959",
"R  c #DC4A58",
"E  c #DD4A58",
"W  c #DE4A59",
"Q  c #DF4A58",
"!  c #DD4959",
"~  c #E44D57",
"^  c #E74E57",
"/  c #E94F57",
"(  c #E94E57",
")  c #EA4F57",
"_  c #EB4F57",
"`  c #E84E57",
"'  c #E04B58",
"]  c #E14B59",
"[  c #E24C58",
"{  c #E34C58",
"}  c #E74D58",
"|  c #E54E58",
" . c #E94E58",
".. c #E94F58",
"X. c #E94E58",
"o. c #EC5057",
"O. c #EE5156",
"+. c #EF5157",
"@. c #EF5257",
"#. c #ED5157",
"$. c #F15157",
"%. c #F05256",
"&. c #F15257",
"*. c #F25356",
"=. c #F35257",
"-. c #F45356",
";. c #F55356",
":. c #F55357",
">. c #F55456",
",. c #F65456",
"<. c #F65556",
"1. c #F75556",
"2. c #F05257",
"3. c #F85555",
"4. c #FA5655",
"5. c #FB5655",
"6. c #FB5755",
"7. c #F85556",
"8. c #F85656",
"9. c #F95656",
"0. c #FA5656",
"q. c #FB5756",
"w. c #FC5655",
"e. c #FC5755",
"r. c #FD5755",
"t. c #FE5755",
"y. c #FF5755",
"u. c #FC5756",
"i. c #FB5755",
"p. c #FF5854",
"a. c #FE5855",
"s. c #FF5855",
"d. c #FD5856",
"f. c #FF5856",
"g. c #FF5855",
"h. c #B9867E",
"j. c #BC8A7E",
"k. c #C2907F",
"l. c #CC9C82",
"z. c #D3A483",
"x. c #DAAE85",
"c. c #DDB286",
"v. c #E5BC88",
"b. c #EEC68A",
"n. c #F2CA8B",
"m. c #FCD68D",
"M. c #FFDA8E",
/* pixels */
"                                                                                                                                ",
"                                                                                                                                ",
"                                                                . X                                                             ",
"                                                                . X X                                                           ",
"                                                              X X @ X .                                                         ",
"                                                            . X < / o X                                                         ",
"                                                            X $ 0.s.V X X                                                       ",
"                                                          X o | s.s.s.2 X .                                                     ",
"                                                        . X p s.s.s.s.y.7 X .                                                   ",
"                                            X         X X 2 s.s.s.s.s.s.O.o X       . .                                         ",
"                                          . X X     X X % 0.s.s.s.s.s.s.s.P X X     X X                                         ",
"                                          X o X X   X o / s.s.s.s.y.s.s.s.s.3 X X X X X X                                       ",
"                                        X X F 8 X X X N s.s.s.s.s.s.s.s.s.s.y.8 X X 6 4 X X                                     ",
"                                      . X 6 s.&.X X 2 s.s.s.s.s.s.s.s.s.s.s.s.&.O X u s.9 X X                                   ",
"                                    X X e s.y.2 X = 0.s.s.s.s.s.s.s.s.s.s.s.s.s.P X o ~ ;.@ X                                   ",
"                                    X $ >.s.N X o / s.s.s.s.s.s.s.s.s.s.s.s.s.s.s.3 X $ 0.E X X                                 ",
"                                  X X E s.O.o X = < < < <  .s.s.s.s.s.s.s.u < < < < X X t s.6 X X                               ",
"                                . X 6 s.s.6 X X X X X X X 4 s.s.s.s.s.s.s.o X X X X X X X s.s.0 X .                             ",
"                              . X e s.s.y.6 , , , , $ X $ ;.s.s.s.s.s.s.s.a X X 8 9 9 9 2 >.s.>.$ X                             ",
"                              X $ >.s.s.s.s.s.>.5 q X X [ s.s.s.s.s.s.s.s.s.< X O 3 O.s.s.s.s.s.[ X X                           ",
"                            X X ' s.s.s.s.s.s.N 2 X X n s.s.s.s.s.s.s.s.s.s.y.7 X $ 5 0.s.s.s.s.s.6 X X                         ",
"                          . X o = = = 6 s.s.E 3 O X 2 s.s.s.s.s.s.s.s.s.s.s.s.O.O X 8 n s.s.t = = = X X X                       ",
"                          X X X X X X e s.&.3 $ X = y.s.s.s.s.s.s.s.s.s.s.s.s.s.U X X < E s.o X X X X X X                       ",
"                                . X O O.0.6 8 X O O.s.s.s.s.s.s.s.s.s.s.s.s.s.s.s.5 X o 2 O.F X .                               ",
"                                X X P s.N < X X U s.s.s.s.s.s.s.s.s.s.s.s.s.s.s.s.s.q X @ 5 y.4 X X                             ",
"                              . X 6 s.E 2 o X 6 s.s.s.s.s.s.s.s.s.s.s.s.s.s.s.s.s.s.0.% X = V s.e X X                           ",
"                            X X 0 s.&.3 @ X 0 s.s.s.s.s.s.s.s.s.s.s.s.s.s.s.s.s.s.s.s./ o X 9 ' 0.$ X X                         ",
"                          X X $ 0.s.6 = X $ 0.s.s.s.s.s.s.s.s.s.s.s.s.s.s.s.s.s.s.s.s.s.F X X 2 &./ o X                         ",
"                          X o  .s.V 9 X o / s.s.s.s.s.s.s.s.s.s.s.s.s.s.s.s.s.s.s.s.s.s.s.3 X o 5 y.F X X                       ",
"                        X X Z s.[ < X X n ;.;.;.;.;.;.y.s.s.s.s.s.s.s.s.s.s.s.>.;.;.;.;.;.&.7 X $ Z s.3 X X                     ",
"                      X X 4 s.;.4 O X X X X X X X X X o &.s.s.s.s.s.s.s.s.s.4 X X X X X X X X X X 8 ~ s.9 X .                   ",
"                    . X 8 s.y.6 3 = o o o o o o o X X O 0.s.s.s.s.s.s.s.s.s.u X X o o o o o o o o q 4 ;.>.$ X                   ",
"                  X X X 3 4 3 2 2 2 Z E E E P 3 2 X X I s.s.s.s.s.s.s.s.s.s.s.e X % 3 Z E E E 6 2 2 2 3 4 < X X                 ",
"                  X X X X X X X X X < s.s.s.V 3 O X 4 s.s.s.s.s.s.s.s.s.s.s.s.>.$ X 9 a y.s.s.$ X X X X X X X X X               ",
"                              X X X ~ s.s.~ 3 = X 8 y.s.s.s.s.s.s.s.s.s.s.s.s.s.' X X 1 P s.s.N X X X                           ",
"                              . X a s.s.>.4 e X O O.s.s.s.s.s.s.s.s.s.s.s.s.s.s.s.6 X + 3  .s.s.< X X                           ",
"                            . X q s.s.y.6 2 X X P s.s.s.s.s.s.s.s.s.s.s.s.s.s.s.s.s.9 X = 4 >.s.0.% X                           ",
"                            X $ >.s.s.F 3 O X 3 s.s.s.s.s.s.s.s.s.s.s.s.s.s.s.s.s.s.;.@ X 9 u s.s.~ o X                         ",
"                          X X ' s.s./ 3 = X 7 y.s.s.s.s.s.s.s.s.s.s.s.s.s.s.s.s.s.s.s.E X X 2 U s.s.n X X                       ",
"                        X X 6 s.s.0.5 , X o O.s.s.s.s.s.s.s.s.s.s.s.s.s.s.s.s.s.s.s.s.s.5 X O 3 O.s.s.< X X                     ",
"                      . X e s.s.s.u 2 X X F s.s.s.s.s.s.s.s.s.s.s.s.s.s.s.s.s.s.s.s.s.s.s.9 X = 5 0.s.0.$ X                     ",
"                      X $ >.s.s.P 3 O X 3 s.s.s.s.s.s.s.s.s.s.s.s.s.s.s.s.s.s.s.s.s.s.s.s.;.@ X , n s.s.| o X                   ",
"                    X X E s.s.O.3 = X 7 y.s.s.s.s.s.s.s.s.s.s.s.s.s.s.s.s.s.s.s.s.s.s.s.s.s.E X X 2 E s.s.n X X                 ",
"                  X X 6 s.s.0.5 e X + O.s.s.s.s.s.s.s.s.s.s.s.s.s.s.s.s.s.s.s.s.s.s.s.s.s.s.s.4 X O 3 &.s.s.< X .               ",
"                X X e s.s.s.n 2 X X 6  . . . . . . . . . . . .E d d V  . . . . . . . . . . . ./ = X = 6 0.s.0.$ X               ",
"                X X o o o o X X X X X X X X X X X X X X X X X X X X X X X X X X X X X X X X X X X X X X X X X X X X             ",
"                . . . . . . . . X X X X X X X X X X X X X X X X & f X X X X X X X X X X X X X X X X X X . . . . . .             ",
"                                        . X j.* X             X g b.X X           X k k X                                       ",
"                                  . .   . X j.* X             X g b.X X           X k k X     X X                               ",
"                            . X X X X X . X j.* X             X g b.X X           X k j X X X X X X X X                         ",
"                          X X : j.x.l.x # X : * X             X g b.X X           X j * X & c z.z.h.- X X                       ",
"                        X X z M.M.M.M.M.n.; X # X             X g b.X X           X - X : n.M.M.M.M.m.l X X                     ",
"                        X h M.M.M.M.M.M.M.n.# X X             X g b.X X           X X * b.M.M.M.M.M.M.M.f X .                   ",
"                      . X v.M.M.M.M.M.M.M.M.c X X X .         X g b.X X           X X v M.M.M.M.M.M.M.M.x.X X X X               ",
"                    X X - M.M.M.M.M.M.M.M.M.m.z.h.: X X       X g b.X X         . X X v.M.M.M.M.M.M.M.M.M.c.k.j X X             ",
"                  X X l n.M.M.M.M.M.M.M.M.M.M.M.M.m.h X X     X g b.X X       . X > c.M.M.M.M.M.M.M.M.M.M.M.M.M.j.X X           ",
"          X X X X X # f f f f f f f f f f f f f f f : X X X X X X # X X X X X X X f f f f f f f f f f f f f f f f X X X X .     ",
"          X X X X X X X X X X X X X X X X X X X X X X X X X X X X X X X X X X X X X X X X X X X X X X X X X X X X X X X X X     ",
"                                                                                                                                ",
"                                                                                                                                ",
"                                                                                                                                ",
"                                                                                                                                ",
"                                                                                                                                ",
"                                                                                                                                "
};
