/* XPM */
static char *_b7c250f42ad44f0c133c8e5d8070f40vlW8awhMQsN2eP6z[] = {
/* columns rows colors chars-per-pixel */
"64 64 26 1 ",
"  c None",
". c #B27946",
"X c #CF9E76",
"o c #D1A17A",
"O c #D1A27A",
"+ c #AAB2BD",
"@ c #D6AA86",
"# c #D6AA87",
"$ c #D7AC88",
"% c #D7AC89",
"& c #D8AC89",
"* c #DFB28B",
"= c #E1B58F",
"- c #E1B790",
"; c #E2B893",
": c #E3B993",
"> c #E4BA96",
", c #E4BB98",
"< c #ECC19C",
"1 c #E4C4A7",
"2 c #E4C3A8",
"3 c #E5C4A8",
"4 c #F0D0B4",
"5 c #F1D9C3",
"6 c #F4DECA",
"7 c #F5E0CD",
/* pixels */
"                                                                ",
"                                                                ",
"                               ::                               ",
"                             :****:                             ",
"                            ********                            ",
"     ::          :=>        ********        ,-:          ::     ",
"   :****:      :*****=>     ********     ,-*****:      :****:   ",
"  ********    **********    ********    **********    ********  ",
"  ********    **********    ********    **********    ********  ",
"  ********    **********    ********    **********    ********  ",
"  **********XX************************************XX**********  ",
"  **********XX************************************XX**********  ",
"  **********XX************************************XX**********  ",
"  **********XX************************************XX**********  ",
"  **********XX******XXXX******XXXX******XXXX******XX**********  ",
"  **********XX******XXXX******XXXX******XXXX******XX**********  ",
"  **********XX******XXXX******XXXX******XXXX******XX**********  ",
"  **********XX******XXXX******XXXX******XXXX******XX**********  ",
"  **********XX******XXXX******XXXX******XXXX******XX**********  ",
"  **********XX******XXXX******XXXX******XXXX******XX**********  ",
"  <<<**<<**<<<444444444444444444444444444444444444<<<**<<**<<<  ",
"  <<<**<<**<<<444444444444444444444444444444444444<<<**<<**<<<  ",
"  444**44**4<<777777777777777777777777777777777777<<4**44**444  ",
"  444**44**4<<777777777777777777777777777777777777<<4**44**444  ",
"  444**44**4<<77777777777++++++++++++++77777777777<<4**44**444  ",
"  **********XX77777777777++++++++++++++77777777777XX**********  ",
"  **********XX77777777777++++++++++++++77777777777XX**********  ",
"  44444**444<<77777777777++++++++++++++77777777777<<444**44444  ",
"  44444**444<<777777777777777777777777777777777777<<444**44444  ",
"  44444**444<<777777777777777777777777777777777777<<444**44444  ",
"  44444**444<<777777777777777777777777777777777777<<444**44444  ",
"  **********XX777777777777777777777777777777777777XX**********  ",
"  **********XX7777777762$OXXXXXXXXXXXXO$1677777777XX**********  ",
"  444**44**4<<77777775@XXXXXXXXXXXXXXXXXX@57777777<<4**44**444  ",
"  444**44**4<<7777776@XXXXXXXXXXXXXXXXXXXX@6777777<<4**44**444  ",
"  444**44**4<<7777772XXXXXXXXXXXXXXXXXXXXXX3777777<<4**44**444  ",
"  444**44**4<<777777$XXXXXXXXXXXXXXXXXXXXXX&777777<<4**44**444  ",
"  **********XX777777OXXXXXXXXXXXXXXXXXXXXXXO777777XX**********  ",
"  **********XX777777XXXXXX............XXXXXX777777XX**********  ",
"  44444**444<<777777XXXXXX............XXXXXX777777<<444**44444  ",
"  44444**444<<777777XXXXXX............XXXXXX777777<<444**44444  ",
"  44444**444<<777777XXXXXX............XXXXXX777777<<444**44444  ",
"  44444**444<<777777XXXXXX............XXXXXX777777<<444**44444  ",
"  **********XX777777XXXXXX............XXXXXX777777XX**********  ",
"  **********XX777777XXXXXX............XXXXXX777777XX**********  ",
"  444**44**4<<777777XXXXXX............XXXXXX777777<<4**44**444  ",
"  444**44**4<<777777XXXXXX............XXXXXX777777<<4**44**444  ",
"  444**44**4<<777777XXXXXX............XXXXXX777777<<4**44**444  ",
"  444**44**4<<777777XXXXXX............XXXXXX777777<<4**44**444  ",
"  **********XX777777XXXXXX............XXXXXX777777XX**********  ",
"  **********XX777777XXXXXX............XXXXXX777777XX**********  ",
"  44444**444<<777777XXXXXX............XXXXXX777777<<444**44444  ",
"  44444**444<<777777XXXXXX............XXXXXX777777<<444**44444  ",
"  44444**444<<777777XXXXXX............XXXXXX777777<<444**44444  ",
"  44444**444<<777777XXXXXX............XXXXXX777777<<444**44444  ",
"  **********XX777777XXXXXX............XXXXXX777777XX**********  ",
"  **********XX777777XXXXXX............XXXXXX777777XX**********  ",
"  444**44**4<<777777XXXXXX............XXXXXX777777<<4**44**444  ",
"  444**44**4<<777777XXXXXX............XXXXXX777777<<4**44**444  ",
"  444**44**4<<777777XXXXXX............XXXXXX777777<<4**44**444  ",
"  444**44**4<<777777XXXXXX............XXXXXX777777<<4**44**444  ",
"  444**44**4<<777777XXXXXX............XXXXXX777777<<4**44**444  ",
"                                                                ",
"                                                                "
};
