/* XPM */
static char *_58b216b3ff84c0eb657bc64efe4a2feC8qNfdWurnSdIbKJ[] = {
/* columns rows colors chars-per-pixel */
"64 64 127 2 ",
"   c None",
".  c #E3598C",
"X  c #E35B8C",
"o  c #E35A8D",
"O  c #E35B8D",
"+  c #E45A8C",
"@  c #E45A8D",
"#  c #E55D8E",
"$  c #E55E90",
"%  c #E56191",
"&  c #E46292",
"*  c #E76494",
"=  c #E76594",
"-  c #E76796",
";  c #E86897",
":  c #E96998",
">  c #E86F9B",
",  c #E8719C",
"<  c #E976A0",
"1  c #EB79A2",
"2  c #EE79A2",
"3  c #EE79A3",
"4  c #EF7AA4",
"5  c #EB7DA6",
"6  c #EA7FA6",
"7  c #EB7FA6",
"8  c #EC7EA6",
"9  c #ED80A6",
"0  c #EB81A9",
"q  c #EB84AA",
"w  c #EB85AB",
"e  c #EE85AB",
"r  c #EC86AB",
"t  c #F285AB",
"y  c #F285AC",
"u  c #F385AC",
"i  c #F286AD",
"p  c #F386AD",
"a  c #F387AD",
"s  c #F388AE",
"d  c #F389AE",
"f  c #F389AF",
"g  c #F38AAF",
"h  c #EE8FB2",
"j  c #F38BB0",
"k  c #F18DB1",
"l  c #F48CB1",
"z  c #EE94B5",
"x  c #EF97B7",
"c  c #F396B7",
"v  c #F597B8",
"b  c #F099B9",
"n  c #F599B9",
"m  c #F59ABA",
"M  c #F49BBA",
"N  c #F59BBB",
"B  c #F49CBA",
"V  c #F59CBB",
"C  c #F19FBC",
"Z  c #F19FBD",
"A  c #F59DBC",
"S  c #F59EBC",
"D  c #F1A0BD",
"F  c #F5A0BE",
"G  c #F5A1BF",
"H  c #F6A0BE",
"J  c #F2A4C1",
"K  c #F2A7C2",
"L  c #F6A4C1",
"P  c #F6A5C1",
"I  c #F6A7C3",
"U  c #F6A8C4",
"Y  c #F6AAC5",
"T  c #F6ABC5",
"R  c #F6ACC6",
"E  c #F7ADC7",
"W  c #F7AEC7",
"Q  c #F7AFC9",
"!  c #F4B1C9",
"~  c #F7B0C9",
"^  c #F7B1CA",
"/  c #F7B3CB",
"(  c #F8B5CC",
")  c #F5B8CF",
"_  c #F6BBD0",
"`  c #F7BED2",
"'  c #F6BFD3",
"]  c #F9C4D7",
"[  c #FAC8DA",
"{  c #FAC9DA",
"}  c #F8CCDC",
"|  c #F9CCDC",
" . c #F9CFDE",
".. c #F9D1DF",
"X. c #FAD2E0",
"o. c #FAD3E1",
"O. c #FBD3E1",
"+. c #FAD9E5",
"@. c #FBD9E5",
"#. c #FADAE6",
"$. c #FBDAE6",
"%. c #FBDBE6",
"&. c #FBDCE7",
"*. c #FBDDE8",
"=. c #FBDEE8",
"-. c #FBDFE9",
";. c #FCDDE8",
":. c #FCDEE8",
">. c #FCDFE9",
",. c #FCE6EE",
"<. c #FDE7EE",
"1. c #FCE7EF",
"2. c #FDE7EF",
"3. c #FCE8EF",
"4. c #FDE8EF",
"5. c #FDE8F0",
"6. c #FDEFF4",
"7. c #FEF4F7",
"8. c #FEF5F8",
"9. c #FEF8FA",
"0. c #FEF9FB",
"q. c #FEFAFB",
"w. c #FFFBFC",
"e. c #FFFCFD",
"r. c #FFFDFD",
"t. c #FFFEFE",
"y. c white",
/* pixels */
"a a a a a a a a a a a a a a a a a a a a a a a a a a a a a a a a a a a a a a a a a a a a a a a a a a a a a a V                   ",
"a a a a a a a a a a a a a a a a a a a a a a a a a a a a a a a a a a a a a a a a a a a a a a a a a a a a a a H E                 ",
"a a a a a a a a a a a a a a a a a a a a a a a a a a a a a a a a a a a a a a a a a a a a a a a a a a a a a a H ~ E               ",
"a a a a a a a a a a a a a a a a a a a a a a a a a a a a a a a a a a a a a a a a a a a a a a a a a a a a a a H ~ / E             ",
"a a a a a a a a a a a a a a a a a a a a a a a a a a a a a a a a a a a a a a a a a a a a a a a a a a d d a a H ~ ~ ~ E           ",
"a a a a a a a a a a a a a a a a a a a a a a a a a a a a a a a a a a a a a a a a a a a a a a a a a a a d a a H ~ ~ ~ / E         ",
"a a a a a a a a a a a a a a a a a a a a a a a a a a a a a a a a a a a a a a a a a a a a a a a a a a a d a a H ~ ~ ~ ~ ~ E       ",
"a a a a a a a a a a a a a a a a a a a a a a a a a a a a a a a a a a a a a a a a a a a a a a a a a a a a a a H ~ ~ ~ ~ ~ ~ E     ",
"a a a a a a a a a a a a a a a a a a a a a a a a a a a a a a a a a a a a a a a a a a a a a a a a a a a a a a H ~ ~ ~ ~ ~ ~ ~ E   ",
"a a a a a a a a a a a a a a a a a a a a a a a a a a a a a a a a a a a a a a a a a a a a a a a a a a a a a a k e e e e e e e e 8 ",
"a a a a a a a a a a a a a a a a a a a a a a a a a a a a a a a a a a a a a a a a a a a a a a a a a a a a a a a ; . . . . . . . . ",
"a a a a a a a a a a a a a a a a a a a a a a a a a a a a a a a a a a a a a a a a a a a a a a a a a a a a a a a a ; . . . . . . . ",
"a a a a a a a a a a a a a a a a a a a a a a a a a a a a a a a a a a a a a a a a a a a a a a a a a a a a a a a a a ; . . . . . . ",
"a a a a a a a a a a a a a a a a a a a a a a a a a a a a a a a a a a a a a a a a a a a a a a a a a a a a a a a a d a : . . . . . ",
"a a a a a a a a a a a a a a a a a a a a a a a a a a a a a a a a a a a a a a a a a a a a a a a a a a a a a a a a a a a : . . . . ",
"a a a a a a a a a a a a a a a a a a a d H I I N d a a a a a a a a a a a a a a d N I I H d a a a a a a a a a a a a a a a : . . . ",
"a a a a a a a a a a a a a a a a a E >.w.y.y.y.y.y.>.E d a a a a a a a a d E >.y.y.y.y.y.w.>.E a a a a a a a a a a a a a a : . . ",
"a a a a a a a a a a a a a a a N 4.y.y.y.y.y.y.y.y.y.y.6.I a a a a a a I 6.y.y.y.y.y.y.y.y.y.y.5.N a a a a a a a a a a a a a : . ",
"a a a a a a a a a a a a a a I 9.y.y.y.y.y.y.y.y.y.y.y.y.y.[ d a a d [ y.y.y.y.y.y.y.y.y.y.y.y.y.9.Y a a a a a a a a a a a a a : ",
"a a a a a a a a a a a a a N 9.y.y.y.y.y.y.y.y.y.y.y.y.y.y.y.@.d d @.y.y.y.y.y.y.y.y.y.y.y.y.y.y.y.9.c a a a a a a a a a a a a a ",
"a a a a a a a a a a a a d 4.y.y.y.y.y.y.y.y.y.y.y.y.y.y.y.y.y.O.O.y.y.y.y.y.y.y.y.y.y.y.y.y.y.y.y.y.4.4 a a a a a a a a a a a a ",
"a a a a a a a a a a a a ~ y.y.y.y.y.y.y.y.y.y.y.y.y.y.y.y.y.y.y.y.y.y.y.y.y.y.y.y.y.y.y.y.y.y.y.y.y.y.Z 2 a a a a a a a a a a a ",
"a a a a a a a a a a a a >.y.y.y.y.y.y.y.y.y.y.y.y.y.y.y.y.y.y.y.y.y.y.y.y.y.y.y.y.y.y.y.y.y.y.y.y.y.y.@.@ 2 a a a a a a a a a a ",
"a a a a a a a a a a a j y.y.y.y.y.y.y.y.y.y.y.y.y.y.y.y.y.y.y.y.y.y.y.y.y.y.y.y.y.y.y.y.y.y.y.y.y.y.y.y.& @ 2 a a a a a a a a a ",
"a a a a a a a a a a a A y.y.y.y.y.y.y.y.y.y.y.y.y.y.y.y.y.y.y.y.y.y.y.y.y.y.y.y.y.y.y.y.y.y.y.y.y.y.y.y.6 . @ 2 a a a a a a a a ",
"a a a a a a a a a a a Y y.y.y.y.y.y.y.y.y.y.y.y.y.y.y.y.y.y.y.y.y.y.y.y.y.y.y.y.y.y.y.y.y.y.y.y.y.y.y.y.z . . @ 2 a a a a a a a ",
"a a a a a a a a a a a E y.y.y.y.y.y.y.y.y.y.y.y.y.y.y.y.y.y.y.y.y.y.y.y.y.y.y.y.y.y.y.y.y.y.y.y.y.y.y.y.z . . . @ 2 a a a a a a ",
"a a a a a a a a a a a I y.y.y.y.y.y.y.y.y.y.y.y.y.y.y.y.y.y.y.y.y.y.y.y.y.y.y.y.y.y.y.y.y.y.y.y.y.y.y.y.h . . . . @ 2 a a a a a ",
"a a a a a a a a a a a V y.y.y.y.y.y.y.y.y.y.y.y.y.y.y.y.y.y.y.y.y.y.y.y.y.y.y.y.y.y.y.y.y.y.y.y.y.y.y.y.6 . . . . . @ 2 a a a a ",
"a a a a a a a a a a a d y.y.y.y.y.y.y.y.y.y.y.y.y.y.y.y.y.y.y.y.y.y.y.y.y.y.y.y.y.y.y.y.y.y.y.y.y.y.y.y.& . . . . . . @ 2 a a a ",
"a a a a a a a a a a a a <.y.y.y.y.y.y.y.y.y.y.y.y.y.y.y.y.y.y.y.y.y.y.y.y.y.y.y.y.y.y.y.y.y.y.y.y.y.y.<.. . . . . . . . @ 2 a a ",
"a a a a a a a a a a a a ] y.y.y.y.y.y.y.y.y.y.y.y.y.y.y.y.y.y.y.y.y.y.y.y.y.y.y.y.y.y.y.y.y.y.y.y.y.y._ . . . . . . . . . @ 2 a ",
"a a a a a a a a a a a a A y.y.y.y.y.y.y.y.y.y.y.y.y.y.y.y.y.y.y.y.y.y.y.y.y.y.y.y.y.y.y.y.y.y.y.y.y.y.w . . . . . . . . . . @ 2 ",
"a a a a a a a a a a a a a <.y.y.y.y.y.y.y.y.y.y.y.y.y.y.y.y.y.y.y.y.y.y.y.y.y.y.y.y.y.y.y.y.y.y.y.y.<.. . . . . . . . . . . . @ ",
"a a a a a a a a a a a a a ( y.y.y.y.y.y.y.y.y.y.y.y.y.y.y.y.y.y.y.y.y.y.y.y.y.y.y.y.y.y.y.y.y.y.y.y.K . . . . . . . . . . . . . ",
"a a a a a a a a a a a a a d 6.y.y.y.y.y.y.y.y.y.y.y.y.y.y.y.y.y.y.y.y.y.y.y.y.y.y.y.y.y.y.y.y.y.y.6.$ . . . . . . . . . . . . . ",
"a a a a a a a a a a a a a a ~ y.y.y.y.y.y.y.y.y.y.y.y.y.y.y.y.y.y.y.y.y.y.y.y.y.y.y.y.y.y.y.y.y.y.Z . . . . . . . . . . . . . . ",
"a a a a a a a a a a a a a a a >.y.y.y.y.y.y.y.y.y.y.y.y.y.y.y.y.y.y.y.y.y.y.y.y.y.y.y.y.y.y.y.y.-.. . . . . . . . . . . . . . . ",
"a a a a a a a a a a a a a a a v 9.y.y.y.y.y.y.y.y.y.y.y.y.y.y.y.y.y.y.y.y.y.y.y.y.y.y.y.y.y.y.9.< . . . . . . . . . . . . . . . ",
"a a a a a a a a a a a a a a a a Q y.y.y.y.y.y.y.y.y.y.y.y.y.y.y.y.y.y.y.y.y.y.y.y.y.y.y.y.y.y.D . . . . . . . . . . . . . . . . ",
"a a a a a a a a a a a a a a a a a [ y.y.y.y.y.y.y.y.y.y.y.y.y.y.y.y.y.y.y.y.y.y.y.y.y.y.y.y.` . . . . . . . . . . . . . . . . . ",
"a a a a a a a a a a a a a a a a a a O.y.y.y.y.y.y.y.y.y.y.y.y.y.y.y.y.y.y.y.y.y.y.y.y.y.y.| . . . . . . . . . . . . . . . . . . ",
"a a a a a a a a a a a a a a a a a a d >.y.y.y.y.y.y.y.y.y.y.y.y.y.y.y.y.y.y.y.y.y.y.y.y.&.$ . . . . . . . . . . . . . . . . . . ",
"a a a a a a a a a a a a a a a a a a a l -.y.y.y.y.y.y.y.y.y.y.y.y.y.y.y.y.y.y.y.y.y.y.@.& . . . . . . . . . . . . . . . . . . . ",
"a a a a a a a a a a a a a a a a a a a a a | y.y.y.y.y.y.y.y.y.y.y.y.y.y.y.y.y.y.y.y.| # . . . . . . . . . . . . . . . . . . . . ",
"a a a a a a a a a a a a a a a a a a a a a a ` y.y.y.y.y.y.y.y.y.y.y.y.y.y.y.y.y.y.) . . . . . . . . . . . . . . . . . . . . . . ",
"a a a a a a a a a a a a a a a a a a a a a a a b 7.y.y.y.y.y.y.y.y.y.y.y.y.y.y.8.z . . . . . . . . . . . . . . . . . . . . . . . ",
"a a a a a a a a a a a a a a a a a a a a a a a a 1 -.y.y.y.y.y.y.y.y.y.y.y.y.-.> . . . . . . . . . . . . . . . . . . . . . . . . ",
"a a a a a a a a a a a a a a a a a a a a a a a a a - K 9.y.y.y.y.y.y.y.y.9.~ . . . . . . . . . . . . . . . . . . . . . . . . . . ",
"a a a a a a a a a a a a a a a a a a a a a a a a a a - , ..y.y.y.y.y.y...> . . . . . . . . . . . . . . . . . . . . . . . . . . . ",
"a a a a a a a a a a a a a a a a a a a a a a a a a a a - . 6 O.y.y.@.0 . . . . . . . . . . . . . . . . . . . . . . . . . . . . . ",
"a a a a a a a a a a a a a a a a a a a a a a a a a a a a - . . e w . . . . . . . . . . . . . . . . . . . . . . . . . . . . . . . ",
"d d a a a a a a a a a a a a a a a a a a a a a a a a a a t - . . . . . . . . . . . . . . . . . . . . . . . . . . . . . . . . . . ",
"d d d a a a a a a a a a a a a a a a a a a a a a a a a a a t - . . . . . . . . . . . . . . . . . . . . . . . . . . . . . . . . . ",
"V H H H H H H H H k a a a a a a a a a a a a a a a a a a a a t - . . . . . . . . . . . . . . . . . . . . . . . . . . . . . . . . ",
"  E ~ ~ ~ ~ ~ ~ ~ e - a a a a a a a a a a a a a a a a a a a a t - . . . . . . . . . . . . . . . . . . . . . . . . . . . . . . . ",
"    Y ~ ~ / / / / e . - a a a a a a a a a a a a a a a a a a a a t - . . . . . . . . . . . . . . . . . . . . . . . . . . . . . . ",
"      Y ~ ~ / / / e . . - a a a a a a a a a a a a a a a a a a a a t - . . . . . . . . . . . . . . . . . . . . . . . . . . . . . ",
"        Y ~ ~ ~ ~ e . . . - a a a a a a a a a a a a a a a a a a a a t - . . . . . . . . . . . . . . . . . . . . . . . . . . . . ",
"          Y ~ ~ ~ e . . . . - a a a a a a a a a a a a a a a a a a a a t - . . . . . . . . . . . . . . . . . . . . . . . . . . . ",
"            Y ~ ~ e . . . . . - a a a a a a a a a a a a a a a a a a a a t - . . . . . . . . . . . . . . . . . . . . . . . . . . ",
"              Y ~ e . . . . . . - a a a a a a a a a a a a a a a a a a a a t - . . . . . . . . . . . . . . . . . . . . . . . . . ",
"                Y e . . . . . . . - a a a a a a a a a a a a a a a a a a a a t - . . . . . . . . . . . . . . . . . . . . . . . . ",
"                  9 . . . . . . . . - a a a a a a a a a a a a a a a a a a a a t - . . . . . . . . . . . . . . . . . . . . . . . "
};
