/* XPM */
static char *_45ae38fc4c144f2854ee76616c9f7ebrTVJ2YKuVXW0OdBg[] = {
/* columns rows colors chars-per-pixel */
"64 64 256 2 ",
"   c #010101",
".  c #0B0102",
"X  c #010903",
"o  c #02030A",
"O  c #09010A",
"+  c #040909",
"@  c #130102",
"#  c #13000C",
"$  c #010111",
"%  c #001009",
"&  c #961415",
"*  c #B51A19",
"=  c #9C211B",
"-  c #A8221E",
";  c #BA1B25",
":  c #A81B26",
">  c #B4282B",
",  c #D41C1D",
"<  c #DA1D1E",
"1  c #CE1916",
"2  c #E51A17",
"3  c #D4211E",
"4  c #CE231E",
"5  c #CC1B25",
"6  c #D41D24",
"7  c #DC1D23",
"8  c #D31C2A",
"9  c #DB1C2A",
"0  c #D81621",
"q  c #CF1A32",
"w  c #E11C28",
"e  c #E61B30",
"r  c #CC2424",
"t  c #CB232A",
"y  c #C92629",
"u  c #D42224",
"i  c #DB2324",
"p  c #D4242B",
"a  c #DA242B",
"s  c #D42A2B",
"d  c #DA2A2B",
"f  c #D62A24",
"g  c #CD3728",
"h  c #D8372B",
"j  c #D82834",
"k  c #D93633",
"l  c #CD2B32",
"z  c #E3222C",
"x  c #E22729",
"c  c #E42935",
"v  c #E13737",
"b  c #F9313E",
"n  c #E1211E",
"m  c #A54839",
"M  c #D84937",
"N  c #D85539",
"B  c #D14B2E",
"V  c #D6653B",
"C  c #D8783E",
"Z  c #E15836",
"A  c #D93E49",
"S  c #EC354A",
"D  c #B7575B",
"F  c #B86C6E",
"G  c #AD5B5B",
"H  c #DB4B46",
"J  c #DC5845",
"K  c #D64E57",
"L  c #E74748",
"P  c #E35355",
"I  c #EC4D53",
"U  c #D96949",
"Y  c #DA7947",
"T  c #DB7654",
"R  c #E76959",
"E  c #E0744C",
"W  c #DB4C78",
"Q  c #F05370",
"!  c #E57A66",
"~  c #F26975",
"^  c #EB6D73",
"/  c #CC717A",
"(  c #D8894B",
")  c #DC974F",
"_  c #D99856",
"`  c #DD8655",
"'  c #E18C56",
"]  c #D9A25B",
"[  c #D78A6C",
"{  c #E58568",
"}  c #EA9570",
"|  c #DBAD6D",
" . c #E8B879",
".. c #EBA87D",
"X. c #DCD87D",
"o. c #D7C97E",
"O. c #E6D57D",
"+. c #DA5A87",
"@. c #DE4F81",
"#. c #E35385",
"$. c #E35B8C",
"%. c #EB5A8E",
"&. c #E75589",
"*. c #E65F91",
"=. c #EA5E92",
"-. c #F25B92",
";. c #EB5086",
":. c #D8638E",
">. c #DC6B96",
",. c #D9759D",
"<. c #E3628D",
"1. c #E56394",
"2. c #E96294",
"3. c #EB6799",
"4. c #E56B9A",
"5. c #EB6A9B",
"6. c #E56A96",
"7. c #F06B9D",
"8. c #F36499",
"9. c #EB709F",
"0. c #E6769B",
"q. c #F37A89",
"w. c #DC79A4",
"e. c #EC6EA1",
"r. c #E76DA5",
"t. c #F26BA6",
"y. c #E474A3",
"u. c #EC74A4",
"i. c #EC7BA5",
"p. c #ED74A9",
"a. c #E57CA9",
"s. c #ED7BAA",
"d. c #E37AA4",
"f. c #F173A4",
"g. c #F27CA6",
"h. c #F274AB",
"j. c #F27BAB",
"k. c #FB75A9",
"l. c #EB7CB2",
"z. c #F47CB1",
"x. c #F777B3",
"c. c #F46FB1",
"v. c #DB8F96",
"b. c #E4849A",
"n. c #E79799",
"m. c #F48C93",
"M. c #DAB094",
"N. c #E6A895",
"B. c #E4B394",
"V. c #E8B996",
"C. c #EFAF8C",
"Z. c #DB88A7",
"A. c #D990A8",
"S. c #EB82AC",
"D. c #E785A6",
"F. c #F384AC",
"G. c #EA97A9",
"H. c #F697A7",
"J. c #EA87B3",
"K. c #F181B3",
"L. c #E898B6",
"P. c #F396BA",
"I. c #D8ACB3",
"U. c #ECA6A9",
"Y. c #F2ABA9",
"T. c #E7A8B8",
"R. c #F3B0B0",
"E. c #DDDA84",
"W. c #DCD787",
"Q. c #DDC595",
"!. c #E4D684",
"~. c #E3DB85",
"^. c #ECDC85",
"/. c #E4DB8A",
"(. c #EADC89",
"). c #E5D38B",
"_. c #F1DB8B",
"`. c #E5C695",
"'. c #E8DA94",
"]. c #F6D99B",
"[. c #EECD98",
"{. c #DEE58A",
"}. c #ECE28C",
"|. c #EAE488",
" X c #F2E58B",
".X c #EAE594",
"XX c #F4E593",
"oX c #F2EA95",
"OX c #F5EC9B",
"+X c #FAEB9C",
"@X c #F7E798",
"#X c #F5F19A",
"$X c #FACBA7",
"%X c #F4D8A9",
"&X c #EAC9B4",
"*X c #F4C5B5",
"=X c #F9D9B7",
"-X c #EFD3BB",
";X c #F5EDA3",
":X c #FAEDA3",
">X c #FDEBAC",
",X c #F6E9A8",
"<X c #F6F1A5",
"1X c #FAF1A5",
"2X c #FAF2AB",
"3X c #F4F6AA",
"4X c #EAEBB6",
"5X c #FCEEBA",
"6X c #FBE9B7",
"7X c #F5F4B4",
"8X c #FCF3B4",
"9X c #F5F5BC",
"0X c #FCF5BC",
"qX c #F5F9BB",
"wX c #FBFABC",
"eX c #F7F9B5",
"rX c #EEEFAE",
"tX c #EF9AC2",
"yX c #EAABC6",
"uX c #EDB4CA",
"iX c #F3B7CD",
"pX c #FABBD3",
"aX c #EEB0CD",
"sX c #F5C7D6",
"dX c #EED4DD",
"fX c #F3CFD0",
"gX c #F8E9C6",
"hX c #F5F5C2",
"jX c #FCF5C2",
"kX c #FCF9C2",
"lX c #F7F7C8",
"zX c #ECEAD4",
"xX c #EEECDC",
"cX c #EAE6D3",
"vX c #F1EDDC",
"bX c #F7E8D9",
"nX c #F8F4D9",
"mX c #EDEDCD",
"MX c #F6D7E5",
"NX c #F9E9E9",
"BX c #EFF4E6",
"VX c #F3F2E5",
"CX c #F6F6EB",
"ZX c #FBF3EC",
"AX c #FBFAED",
"SX c #F3FDEC",
"DX c #FDE8F4",
"FX c #EEFCF6",
"GX c #FBF4F4",
"HX c #F5FDF4",
"JX c #FBFCF4",
"KX c #FDF5FB",
"LX c #F6FEFD",
"PX c #FEFEFD",
"IX c #F6F6F3",
"UX c #EDECE4",
/* pixels */
"                          .     o     X             o O .     .                                                                 ",
"                .     X X X     o         o o   X . X X     o o                                                                 ",
"                    X @               .           O   X X X .                                                                   ",
"                  X . . X + O     o     X   X O X   O   + . X .                                                                 ",
"                      X # o   X o X .   O     X   . .     o O                                                                   ",
"                  X       o X   . e 2 2 S @ o $ X . X   o     X                                                                 ",
"                            X S j b L v S ; 6 n p c 9 X     O o                                                                 ",
"                      . X . S c L I ^ ~ I c p p i 4 s q X X .                                                                   ",
"                $   X     S 5 v I m.Y.m.~ L s 9 t 7 u y ,                         O     o             o o O o         X X     O ",
"                .     @ X j v I ^ m.Y.H.q.P j 8 r y t p p e   o                             X         X X     X   O       X   X ",
"            X     X X O c k l S q.H.H.m.~ P k a , ; q 8 u 6 X                         X       CXnXnXZXJXAXnX6X4X4X    o o o     ",
"              X     o o 7 1 d L ~ m.q.q.Q L k a a y t t s JXSXPXHXHXHXPXPXPXPXPXPXIXPXPXJXPXPXHXPXPXPXPXPXPXHXJXAXJXPXIXZXNX  X ",
"              CX0XAXJXLXPXG.7 j I Q P P P v s d 8 t * * ^ LXHXPXPXPXPXPXPXPXPXPXPXPXPXPXPXPXPXPXPXPXPXPXLXHXLXPXPXLXDXuXD.J.. o ",
"    PXPXPXPXJXJXAXPXPXPXPXSXR 1 9 c v k v c z d a t > * b.ZXKXKXPXPXPXPXPXPXPXPXPXPXPXPXPXPXPXPXPXPXKXPXPXPXPXKXJXNXtXw.y.w.o o ",
"  PXIXCXIXIXJXPXPXJXPXHXHXJXT.K > * a a a z z 6 u ; : - U.AXIXJXPXPXPXPXPXPXPXPXPXPXPXPXKXPXPXPXPXPXPXJXJXKXDXaXtXA.b.U.*XI.X   ",
"  IXJXAXVXIXPXPXHXPXKXZXKXPXPXvX[ - ; y y 5 t y ; & & m -XUXnXHXPXPXPXPXPXPXPXPXPXPXPXPXPXPXPXPXPXPXGXMXdXdXiXb.G.*X6X0X0XgX. o ",
". HXFXBXAXJXPXPXJXVXvXzXzXvXAXPXZXF : ; * = = & = > G M.vXVXAXJXJXJXPXPXPXPXPXPXPXPXPXPXPXPXPXKXZXZXyXp.u.A.bXgXjX0XhX0XjXhX    ",
"  CXZXNXAXPXPXPXIXVXzXcXcXcXxXVXHXNXv.F D D D / I.NXGXKXPXHXPXPXPXPXPXPXPXPXPXKXPXPXPXPXPXKXMXuXJ.L.I.T.=XgXnX9XjX0XhX0XjXhX    ",
"  dXfXZXPXHXLXPXAXVXxXxXzXcXcXcXvXJXSXCXZXNXUXHXHXPXGXZXZXVXCXIXLXHXPXPXPXPXPXPXPXPXKXDXpXL.b.b.U.&XgXjXeX4XhXjXjX0XhX0XjXhX    ",
"  dXsXUXJXLXPXPXHXIXCXCXVXvXzXzXbXzXxXVXVXCXCXUXvXvXvXvXzXxXCXPXPXPXPXLXLXLXPXGXIXsXD.u.F.U.*XgX0X8XwX9X0X9XmXnXjX0XhX0XjXhX    ",
"X MXsXFXPXPXGXGXPXPXHXJXIXCXVXvXzXvXVXxXxXvXbXbXvXxXVXVXCXPXPXPXPXPXKXNXNXMXiXA.aXT.G.R.=X9X9XhX0XwXkXlXhX4XhX0XjX0XkX0XjXhX    ",
"  sXyXNXDXPXIXIXPXPXPXPXPXJXJXIXIXIXIXIXHXBXSXHXPXKXPXPXPXLXLXPXHXNXiXL.w.w.D.G.*XgXhXqX7X0X0XkXhXkXhXjXkXhXlXjXjX0XhX0XjXhX    ",
". yXP.uXL.NXJXJXIXJXPXPXPXPXPXPXPXPXPXPXPXPXPXPXPXPXPXPXHXHXAXNXyXZ.>.d.G.Y.%X8XrX0X0X9X0XkX0X8XlXwX0X0X8X9XlXlXjX0XhX0XjXhX    ",
"O yXP.iX+.T.sXNXAXJXPXPXPXPXPXPXPXPXPXPXPXLXPXPXPXPXPXPXKXsXL.d.y.D.Y.$X>X7XeX7X7XeX8X8X0X9X9XwX5X8X0XkXwX0XjX0XjX0XhX0XjXhX    ",
"  sXuXpX$.T.G.D.T.PXPXPXPXKXLXPXPXPXPXPXKXSXPXLXPXKXdXcXKXA.i.G.'.].:X2X2X2X2X7X7X7XeX0X0X0X0X9XjX0X0X0X0X0X0X0XhXjX0XkXhXqX  . ",
"  sXiXuX1.L.i.+.@.G.GXIXPXLXLXPXPXPXLXPXPXPXDXdXuXL.,.A.MX*X].oX:X:X2X1X1X2X2X7X8X8X7X7X0X0X0XwX0X0X0X9X0XkXkXqXwXkX5X$XN.C.    ",
"  yXT.pX2.$.%.@.W +.pXZ.L.MXDXKXKXPXKXNXdXsXJ.s.0.n.N.Q.lX;X@XoX:X:X:X;X;X2X2X2X7X8X8XeX7X7X9X0X5XkXkXwX9XkXkXjX$XC.R k x u #   ",
"  T.G.sX6.&.&.#.@.W yX<.W :.5.w.I.fXL.S.w.yXv.N.`.'.XX/.gX,XoXrXOXOX@XOX1X2X2X2X2X2X7X8X0XwX0X0XqX0X5X0XkX=XC.R A s 3 3 r 3 o   ",
"  L.G.MXZ.$.#.#.;.#.L.#.#.$.=.+.P.tXr.0.n.fX'.{.}.|. X'.mX7X X@XoXOXOX1X1X2X2X2X>X8XeX7X8X5X0XwXkX0X=XC.! M s i i p d z 9 i   X ",
"  D.i.tX0.&.#.&.W <.yX$.W %.=.1.x.J.0.B.'.,X'.(.'.'.}.~.gX7X X@XoXOX+X:X:X:X1X2X3X3X2X7X0XwX0X5XC.{ H d i i i 7 z a 3 f k h     ",
"  7.8.1.=.-.-.@.;.<.uX<.$.$.$.4.3.0.u.V.}.'.^./.^..X{.E.zXgXXX.XoXOXOX+X;X;X1X2X8X8X8XeX7X[.} J k a 6 i i u p f i h Z _ _ } X   ",
"  3.7.6.2.$.#.&.W 3.sX2.#.%.8.4.f.u.h.V.X./.^.~.O.'.(.!.zXlXoX.XoXOX@X+X:X;X<X3X8X2X].} J k i 7 i p a a 7 i k N ( ] ( V M N . X ",
"  5.5.3.2.%.&.&.;.6.pX>.%.2.2.9.5.h.h.V.~.~.X.~./.|.O.~.rX9X;X XoXOX+X+XOX1X:X]...T k a z i i i a z 7 f N Y ) ) R B f f z 9     ",
"  5.e.5.2.2.%.$.#.+.>.$.=.>.6.7.u.p.y.B.E.(.!.)./.(.^.(..X.X}. XXXXX+X+X'. .T M x 7 w 7 p y p e u M Y ) _ T J j f 4 i u i s     ",
"  5.u.5.3.2.=.$.$.%.@.%.1.4.5.7.f.h.j.V.W.).!._.E.E.|.}._._.|.|. X_. .` M d 9 9 s p a a a f M U ) _ ` J k u 9 i i i w i i y . . ",
"  9.u.e.5.2.2.*.$.%.-.$.1.5.e.u.u.p.i.B.E.~.E.W.|.^.^.^.|.oX_. .{ N s 9 9 5 , n 9 9 x h V ) _ ( V B f 7 z x i < w i s P ! !     ",
"  9.u.u.5.3.2.1.$.&.=.1.5.8.5.d.i.z.j.B.X.O.X.E.O.^.}./. .' J l u 6 9 8 9 a d u g N ` ] ) V h h w 9 i d i , u d H } V.6X0X6XX . ",
"  u.p.u.5.5.2.2.1.*.%.6.5.7.u.u.u.h.i.B.X.!.X.E./. ._ U h 6 8 8 6 5 r p u f N T _ _ Y M d p s p f p p 9 a H { C.4XjXhXwXjXkX    ",
"  f.h.p.e.5.2.2.$.2.=.6.4.5.u.u.F.j.d.B.E.). .| U B 4 , t t p 9 p 9 a M Y _ ' Y Z h 9 9 j a i x 6 i v R C.=XhXlXjXjXkXqX0X0X  o ",
"  f.h.p.e.5.2.2.-.1.2.6.9.7.i.j.u.j.j.N.| T B u 8 5 6 p 8 8 6 r B V _ _ ( N h u 9 u p i i < a k R ..%X9XqXkXjX0XhX0XkX0X0X9X    ",
"  f.p.u.u.5.2.2.=.=.2.3.5.u.u.p.h.j.i.K s 6 < r 4 r 5 8 p k V ( ] ` V g u 9 9 p p p p i x J } [.5X0X0XwXkXkXlXlXlX9X0XjX8XeXO   ",
"  f.p.u.u.5.2.2.=.2.2.3.5.u.u.p.x.S.s.S 7 p 5 q q 5 g V ( _ ` U g g u 6 a 6 6 i w a H { `.8XwX0X0X0X0X0X0X0X0X0XkX0X0XlX9XqX    ",
"  f.p.u.u.5.2.2.=.2.2.3.5.u.u.p.g.i.z.K 8 8 , s N Y _ _ Y M p 8 w 9 8 8 9 7 f k ! C.,XwXwX8X8XqX0XwX0X0X9X9XwXqX6X0XjXjX0XwX    ",
"  f.p.u.u.5.2.2.=.2.2.3.5.u.u.p.f.S.S.A u M C _ _ Y B f 6 6 u u p 9 0 < h U ..].rX7XeX7X7X8XwX0X7X0XjXjXjXlXkXkXkXwXqX9X9XjX    ",
"  f.p.u.e.5.2.2.=.2.2.5.5.u.u.p.l.h.g.! ( _ Y N l y t t p u 6 , 1 h U } _.:X2X<X2X2X8X8X8X7X9X7X0X0X0XjXjXjX0X5X9XqXlXkXhXgXo o ",
"  f.p.u.e.3.2.2.=.2.2.5.5.u.u.p.a.p.D.! U g 3 5 r 5 8 9 8 r l H '  .XX#XOX+X:X>X2X2X2X7X7X7X0XwX0X0X0XqXqXwXwXwXkXgXfXR.G.H.    ",
"  f.p.u.e.3.2.1.2.2.2.5.e.u.u.p.g.j.j.I 9 8 6 a a 6 6 s M T  .'..XoX@X+X+X1X1X1X2X2X8X8X0X0X0X7X0X0XwXqXkXjX6X=XR.n.i.7.h.g.    ",
"  f.p.u.e.3.2.1.2.2.2.5.e.u.u.p.j.i.S.K 6 a , 6 u k U | O.|. X XXXoXoXOXOX:X;X3X3X8X8X7X7X7X0X0XwXwXwX5X=XR.H.i.u.5.x.j.l.d.    ",
"  u.p.u.e.5.2.=.*.2.2.5.e.u.u.p.i.l.s.I , r g U ]  .^.|.|.^. X XXX@X@X:X:XOX#X<X>X8X8X7X7XeX0X0X0X4X*XH.g.y.w.u.h.p.S.K.i.g.    ",
"  u.p.u.e.5.2.=.*.=.2.5.e.u.u.p.S.z.p.P N {  .).~.~.~.~.^._.XXXX.XoXoXOXOX:X>X8X7X3X3X2X8X0X6X&XU.g.7.f.y.j.k.k.j.s.p.i.j.S.    ",
"  u.p.u.e.6.6.=.*.=.2.5.e.u.u.p.f.k.J.N.o.W.!.O.E.~.~.(.(.}..X.XXXOXOX#X#XOX;X>X1X2XeX6X-XY.D.u.u.h.y.x.t.p.u.S.a.k.S.s.iXg.    ",
"  u.p.u.e.5.2.=.=.=.2.5.e.u.u.p.J.j.a.B.W.W.X.E.O.!.~././.}.}.oXXX@X:X:X+X1X<X3X,X%XY.D.u.e.r.p.e.e.k.a.S.K.p.s.i.F.d.o   . O X ",
"  u.p.u.e.5.2.=.2.2.2.5.e.u.u.p.i.h.j.B.W.W.!.E././././.}.}. X XXXoXoX<X2X>X$XV.H.i.e.e.e.f.f.g.i.i.Z.F.D.i.d.K.o   O       X   ",
"  u.p.u.e.6.2.=.2.2.2.5.e.u.u.p.i.j.K.B.).).).W.W.W./.(.}.}..X.X X#X:X%XV.n.0.t.t.t.h.h.i.0.i.s.s.K.a.p.K.  # o   . X   %   X   ",
"  u.p.u.e.5.2.=.2.2.2.5.e.u.u.p.j.i.s.M.W.).W.).~./.(.(./..X.X@X].V.n.0.e.e.u.u.i.i.i.g.g.j.s.l.z.p.O #     . X   .       . .   ",
"  u.p.u.e.5.2.=.2.2.2.5.e.u.u.p.j.h.z.N.W.W.E.!.~./.(.}..X].V.C.0.9.5.e.t.f.i.s.s.s.j.l.j.j.K.K.X         X . X       X       o ",
"  i.p.e.5.w.*.2.+.1.3.5.e.p.i.j.b.x.a.B.).!.'.W.O.(..XV.N.b.4.t.y.e.f.i.p.j.s.l.z.j.a.k.D.                                      ",
"    4.k.y.-.2.*.8.=.2.5.6.j.u.u.g.x.j.B.E.E.'.'.`.N.b.6.5.4.g.6.i.s.f.S.z.p.f.h.u.Z.  O       X                                 ",
"O   9.3.7.5.2.3.:.5.1.5.e.u.p.s.s.x.i.B.'.`.N.v.5.,.k.r.h.h.u.j.j.k.S.s.j.S.w.o o . .     o .                                   ",
"      4.8.4.6.$.-.=.2.6.f.e.j.i.a.x.s.n.n.b.u.t.c.p.0.k.D.k.z.x.a.s.s.g.  X     X . . X X X @                                   ",
"  X   . O :.5.2.5.+.5.5.5.f.p.a.j.z.s.i.i.e.c.x.i.s.j.s.S.a.k.D.aXj.  o       X X . X   X     X                                 ",
"  X       o 2.2.:.6.2.5.u.u.p.p.j.s.i.s.z.x.p.a.S.S.K.s.x.j.i.          .       X     +                                         ",
"    O   X     O 3.2.8.2.y.y.f.k.l.S.S.s.j.j.s.D.h.x.z.i.  o     X       .   @ X .   @   .     X                                 ",
"            X X o @ ,.f.7.u.s.i.j.s.g.i.z.K.s.s.s.  X X               o X     X X       X .                                     "
};
